<svg id="Layer_1" data-name="Layer 1" xmlns="http://www.w3.org/2000/svg" viewBox="0 0 26.83 19"><defs><style>.cls-1{fill:#040404;}.cls-2{fill:#c27e39;}.cls-3{fill:#5a3318;}.cls-4{fill:#2b1107;}.cls-5{fill:#79543c;}</style></defs><title>Untitled-1</title><rect class="cls-1" x="6" width="15" height="19"/><path id="path0" class="cls-2" d="M6.75,3.56l0,0,0,.13-.08.23-.1.27-.07.21-.12.33c-.14.4-.14.38,0,.38s.12,0,.12.07,0,0,0,0,.06,0,0-.1,0-.07-.08-.08-.05,0,0-.06.16-.49.19-.58l.17-.49c.12-.34.07-.3.38-.3s.27,0,.21-.06a1.31,1.31,0,0,0-.52,0m.66,0,0,0h.26c.3,0,.27,0,.37.28l.08.24.11.32.14.42c.05.14,0,.16,0,.16s-.14.15-.12.17a.06.06,0,0,0,.1,0c0-.06,0-.06.12-.06s.1,0-.1-.54l-.17-.48L8,3.74,8,3.57H7.7c-.25,0-.27,0-.3,0m-.54.15,0,.09a.5.5,0,0,0,0,.11s0,0,0-.08l0-.1h0m1,.12a1,1,0,0,0,.07.19.62.62,0,0,0-.06-.19h0M6.77,4a.07.07,0,0,1,0,0,.07.07,0,0,0,0,0s0,0,0,0a.23.23,0,0,0,0-.09s0,0,0,0m1.16.14a.07.07,0,0,0,0,0,.06.06,0,0,1,0,0s0,0,0,0a.2.2,0,0,0,0-.08c0-.05,0-.06,0,0m-1.23.07a.08.08,0,0,0,0,0s0,0,0,0a.08.08,0,0,0,0,0s0,0,0,0m-1.38,0-.2.58,0,.13L5,5.13,5,5.28H3.2l0,0a.84.84,0,0,0-.08.26s.09-.14.09-.18,0-.07.85-.07,1,0,1-.06L5.12,5l.16-.45.08-.22s0,0,.2,0,.19,0,.19,0a.74.74,0,0,0-.4,0m3.6,0s0,0,.19,0h.19l0,.14.13.35.11.32c.08.22.07.22.16.22H11.2c.24,0,.27,0,.27.06a.16.16,0,0,0,0,.07.14.14,0,0,1,0,.06s0,.08.06.08,0,0,0-.19l0-.12h-.89a6.36,6.36,0,0,1-.9,0,4.27,4.27,0,0,1-.16-.43l-.1-.28-.05-.16a.1.1,0,0,0,0,0,.06.06,0,0,1,0,0c0-.06,0-.07-.23-.07s-.19,0-.19,0m-2.26.08a.06.06,0,0,1,0,0,.05.05,0,0,0,0,0,.14.14,0,0,1,0,.06,1.33,1.33,0,0,0-.09.3s0,0,0,0a.08.08,0,0,1,0,0,.57.57,0,0,0,0-.11.57.57,0,0,1,0-.11.11.11,0,0,0,0-.06s0,0,0,0,0,0,0,0,0,0,0,0m1.4.22a.07.07,0,0,0,0,0,.06.06,0,0,1,0,0,.06.06,0,0,0,0,0s0,0,0-.12,0-.05,0,0m.08.23a.05.05,0,0,0,0,0s0,.14,0,.29,0,0,0,0,.12-.23.11-.26l0-.09s0-.05,0,0m-.87.07L7.16,5l-.08.11L7.21,5c.11-.16.14-.18.18-.11l.06.06s0,0-.05-.08l0,0s0,0-.08.05m-.8.05a.14.14,0,0,0,0,.06l.05.11s0,.07,0,.06a.12.12,0,0,0,0,0,1.35,1.35,0,0,1-.08-.19s0,0,0,0M7.5,5s0,0,0,0A.2.2,0,0,0,7.47,5s0,0,0,0m-.28.15L7.1,5.3c0,.05-.07.06-.43.06s-.38,0-.4-.06-.15-.06-.15,0v0s0,0,0,0,.05,0,.07.05l0,.05H7.1l.07-.09.1-.12,0,0s.05,0,.09,0a.09.09,0,0,0,.09,0h0l-.09-.11c-.11-.14-.1-.14-.22,0m.34-.09s.06.09.07.08l0,0,0,0M7,5.2s0,.05,0,.05.06,0,.09-.09,0,0-.06,0m1.07,0s-.07.06-.1,0,0,0,0,0,.14,0,.13-.05,0,0,0,0m-.38,0s0,0,.06,0l0,0h0m.71.08c0,.06,0,.06-.54.06s-.46,0-.49,0a0,0,0,0,0-.07,0c0,.06.05.07.6.07s.55,0,.57-.06a.08.08,0,0,1,0,0h0s0-.07-.07-.07-.06,0-.08,0M1,6.47H.91v.17c0,.21,0,.23.12.19l.48-.12s0,.42,0,1.08c0,.34,0,.63,0,.63h0l0-.07.09-.1.14-.16L1.93,8V6.7L2,6.61c.07-.09.08-.12,0-.14H1m1.28,0c-.06,0-.05,0,0,.13l.06.08v1.1l-.05.07C2.22,8,2.2,8,2.81,8h.51V7.85c0-.25,0-.24-.29-.13L2.8,7.8a3.09,3.09,0,0,1,0-.56L3,7.32c.21.11.21.11.2-.1V7.09H3c-.23,0-.21,0-.2-.22s0-.2.08-.16a2.19,2.19,0,0,0,.43.13.63.63,0,0,0,0-.36s-.93,0-1,0m3.14,0s0,.07,0,.14l0,.07V7.8l-.06.08C5.35,8,5.35,8,5.6,8s.27,0,.17-.13l-.07-.09v-.4c0-.31,0-.4,0-.4l0,0a4.09,4.09,0,0,0,.33.54c.11.17.1.18.33-.19L6.63,7s0,0,0,.38v.41l-.05.07c-.09.12-.1.12.27.12s.37,0,.26-.13l-.06-.08V6.69l.07-.09c.11-.14.11-.14-.27-.14s-.34,0-.26.11.06.08,0,.22L6.4,7c-.1.16-.09.16-.15.06s-.39-.62-.41-.63a2,2,0,0,0-.41,0m2.09,0c-.08,0-.08,0,0,.13l.06.08V7.2c0,.29,0,.53,0,.54a.28.28,0,0,1-.06.12A.28.28,0,0,0,7.47,8a2.37,2.37,0,0,0,.64,0s0-.06-.06-.13L8,7.8V7.51a2.56,2.56,0,0,1,0-.28l.32.17s.07,0,.07-.17V7.09H8V6.89c0-.23,0-.21.25-.12s.29.1.29-.12,0-.16,0-.17-.84,0-1,0m1.25,0c-.06,0-.05,0,0,.12s.08.1.08.66v.52l-.07.1C8.71,8,8.7,8,9.07,8s.37,0,.27-.14l-.06-.09V6.69l.06-.08c.07-.09.08-.12,0-.14a5.78,5.78,0,0,0-.59,0m1.4,0a.77.77,0,0,0-.64.87c.09.56.67.81,1.29.55l.06,0V7.59c0-.36,0-.35-.24-.34h-.16v.57h0c-.15,0-.43-.3-.49-.54s0-.58,0-.58a.86.86,0,0,1,.45.17l.1.07.06,0,.16-.09.1-.07c0-.15-.41-.31-.69-.27m.89,0s0,0,0,.14l.07.1V7.78l-.07.09C11,8,11,8,11.39,8h.32V8a.28.28,0,0,0-.06-.11l-.06-.08V7.54a1.33,1.33,0,0,1,0-.24H12V7.8L12,7.88c-.09.12-.09.11.28.12s.39,0,.23-.17,0-.07,0-.58V6.7l.06-.09c.1-.15.09-.15-.34-.14s-.3,0-.21.13l.06.08V7.1H11.6V6.69l.07-.09c.07-.09.08-.11.05-.12s-.62,0-.65,0m1.67,0s0,0,0,.13l.07.1V8l.07.07a1.92,1.92,0,0,1,.22.24l.12.13s0-.38,0-.85,0-.86,0-.86l.29.07.16,0c.15,0,.15,0,.15-.18s0-.18,0-.18a11.24,11.24,0,0,0-1.16,0m-8.49.07-.09.18-.23.48L3.8,7.5a1.75,1.75,0,0,1-.19.36C3.52,8,3.51,8,3.78,8S4.05,8,4,7.9l-.06-.08,0,0,0-.08,0-.08h.28c.31,0,.3,0,.34.09s0,.09-.05.19-.09.1.29.1.38,0,.28-.14L5,7.72l-.25-.53-.13-.27L4.52,6.7l-.11-.22H4.35c-.06,0-.07,0-.1.08m0,.52a.9.9,0,0,0,.07.15c.11.21.12.19-.1.19H4.07l.07-.15.08-.18s.06,0,.06,0m.3,1.36,0,0L4.32,9l-.1.18c0,.07,0,.08.08.07s.12,0,.08-.06a.07.07,0,0,1,0-.07c0-.07,0-.08.19-.08s.22,0,.22,0H4.68s0,0,0,0,0,0,0-.05,0,0,0,0,0,0,0,0h0a0,0,0,0,1-.05,0s0,0,0,0l0,0s0,0,0,0,0,0,0-.1a1.16,1.16,0,0,1-.1-.23l0,0s0,0-.06,0m1.37,0a.39.39,0,0,0-.29.41.37.37,0,0,0,0,.11s0,0,0,0a.2.2,0,0,1,0-.2s0-.05,0-.08,0,0,0,0a.17.17,0,0,1,0,.15.08.08,0,0,0,0,.05s0,0,0,0,0,0,0,0a.08.08,0,0,0,0,.06l0,0c0,.06.25.22.36.22s.05,0,0,0a.41.41,0,0,1-.31-.27.49.49,0,0,1,0-.29s.23,0,.28.12,0,0,0,0l0,0h0l0,0c.08,0,0-.13-.12-.15L6,8.42H5.95m2.59,0s0,0,0,.05a1.73,1.73,0,0,1,0,.68c0,.06,0,.06,0,0s.06-.05.08,0,0,0,0,0,0,0,0,0,0,0,0,0a.09.09,0,0,0,0,.08c.07.05.11,0,0,0a1.62,1.62,0,0,1,0-.67s0-.05,0-.06a1.11,1.11,0,0,0-.33,0m1.48,0A.4.4,0,0,0,9.75,9c0,.08.08,0,.07-.05s.07,0,.09.05a0,0,0,0,0,0,0s0,0,0,0,0,0,0,0,0,0,0,.08v.09h.07a.34.34,0,0,0,.23,0c.06,0,.06-.07,0-.07a.42.42,0,0,1-.37-.52c0-.07.18,0,.27.05s0,0,.11,0,.1-.07,0-.12a.32.32,0,0,0-.3-.06m-7.1.07c0,.09,0,.1.14,0s.08,0,.09,0a2.61,2.61,0,0,1,0,.67c-.05.06,0,.06.12.06s.22-.06,0-.07-.09-.07,0-.07,0-.16,0-.22a.42.42,0,0,1,0-.11c0-.06,0,0,0,.09a.92.92,0,0,0,0,.23c0,.06,0,0,0-.26s0-.38,0-.33a.5.5,0,0,0,.18.09s0-.08,0-.12,0,0-.33,0H2.92V8.5M7,8.51c0,.08,0,.09.07.05a.43.43,0,0,1,.14-.07,2.44,2.44,0,0,1,0,.67c-.07,0,0,.07.13.07H7.5s0,0-.14,0H7.27s0,0,0-.12,0-.11,0-.1,0,0,0,0,0-.08,0-.08,0,0,0,.08,0,.22,0,.22a2,2,0,0,0,0-.32c0-.18,0-.32,0-.32l.09,0c.12.06.13.06.13,0V8.42H7v.08m4.29-.05c-.2.12-.17.26.08.44s.17.13.17.18,0,0,0,0,0,0,0,0a.44.44,0,0,1-.31,0c-.07,0-.14,0-.09,0a.43.43,0,0,0,.44,0c.08-.06.14-.21.09-.21s0,0,0,0-.11-.14-.13-.14a.23.23,0,0,1-.11-.07s-.1,0-.1,0h0s0-.05,0-.05,0,0,0,0-.06-.12,0-.12l0,0,0,0,.08,0,.06,0,.08,0c.11-.06.11-.08,0-.12a.35.35,0,0,0-.26,0m0,.14a0,0,0,0,1,0,0s0,0,0,0,0,0,0,0m-6.64.27c0,.07,0,.1,0,.07a.12.12,0,0,0-.12,0c-.08,0,0-.13,0-.21l0,0v.06a.4.4,0,0,0,0,.13m6.83-.09s0,0,0,.06,0,0,0,0,0,0,0,0-.08,0-.09,0l0,0s0,0,0,0,0,0,0,0,0,0,0,0,0,0,0,0l0,0s0,0,.09,0m-6.66.06a0,0,0,0,1,0,0s0,0,0,0l0,0a0,0,0,0,1,0,.06s0,0,0,0l0,0s0,0,0,0a.12.12,0,0,0,0-.06l0-.06s0,0,0,0m6.8.06c0,.05,0,0,0,0a.14.14,0,0,0,0-.06s0,0,0,0a.06.06,0,0,1,0,.07m0,.08s0,0,0,0,0,0,0,0,0,.11,0,.12,0,0-.05-.06l0-.06v0l0,0,.05,0M4.75,9a0,0,0,0,0,0,0s0,.11,0,.11,0,0,0,0,.05,0,.08,0,0-.18,0-.13m.94,1.26-.13,0a2,2,0,0,0,.44,0c.19,0-.08-.06-.32,0m1.94.08c0,.08,0,.14-.08.14l-.1.05-.1.05a.42.42,0,0,1-.17-.09h0s0,.09.07.09l.06,0c.06,0,.2,0,.36-.15a.29.29,0,0,0,0-.08v-.07h.12c.17,0,.16,0,0,0H7.62v.07" transform="translate(6 1)"/><path id="path1" class="cls-1" d="M-6,7.55V15.1H20.83V0H-6V7.55m13.28-4,0,0s0,0,.07,0a2.15,2.15,0,0,1,.6,0,.38.38,0,0,1,0,.11l0,.13L8.17,4l.08.23,0,.07a.6.6,0,0,0,0,.11.3.3,0,0,1,0,.08.13.13,0,0,0,0,0,4.55,4.55,0,0,1,.19.59l-.09,0c-.07,0-.08,0-.11,0s0,0-.09,0-.1,0-.06-.11S8.26,5,8.3,5s0,0,0-.1-.11-.3-.12-.33l0-.06L8,3.9a1.26,1.26,0,0,0-.06-.17l0,0H6.81l0,0,0,.06A2.43,2.43,0,0,1,6.68,4l-.06.17-.09.26-.08.22,0,.12,0,.12,0,.09h0s.12.12.12.21-.11.07-.16,0,0-.05-.12-.05H6.13a3,3,0,0,1,.13-.4l.05-.15.05-.15.19-.54.08-.23,0-.09a.14.14,0,0,1,0-.07,2.43,2.43,0,0,1,.58,0m.56.18a.41.41,0,0,1,.06.14L8,4,8,4.22l.07.23.07.2.06.18c0,.08,0,.12,0,.26s-.08.21-.29.21-.2,0-.29-.11a2.52,2.52,0,0,0-.27-.31l-.06.07A2.13,2.13,0,0,1,7,5.27c-.06,0-.06,0,0,0s.06,0,.17-.17.14-.22.37,0c.06.08.05.1,0,.1a.12.12,0,0,1-.11,0c0-.05-.06,0-.14.06s-.11.17-.38.17-.28,0-.22.07A12.23,12.23,0,0,0,8,5.55c.07-.07,0-.07-.32-.07s-.38,0-.43-.07,0-.17.1-.13.1,0,.51,0h.47l0-.05a.12.12,0,0,1,.2,0c0,.06,0,.11,0,.11s0,0-.07.05l0,.05h-.3l0,.06c0,.08-.06.09-.15.09s-.08,0-.08,0,0,.09-.54.09-.51,0-.55-.06,0,0-.08,0-.14,0-.14-.05a.23.23,0,0,0,0-.07l0,0H6.23l0-.05s0-.05-.06-.05-.08,0-.07-.07a.13.13,0,0,1,.23,0l0,.05h.31A1.07,1.07,0,0,0,7,5.3s-.05,0-.17,0-.21,0-.23-.08a.1.1,0,0,0,0-.05,0,0,0,0,1,0,0s0,0,0,0a.4.4,0,0,1-.06-.17A1,1,0,0,1,6.5,4.7l.16-.49c.08-.25.16-.47.17-.48a4.11,4.11,0,0,1,1,0m-.52.07a1.65,1.65,0,0,0-.42,0L6.84,4l-.06.17-.12.36-.12.37a.67.67,0,0,0,.12.32.55.55,0,0,0,.33,0l0-.06L7.11,5l.07-.09.05-.07c.1-.14.12-.13.32.11l.09.1.08.1c0,.06.34.06.34,0A.68.68,0,0,1,8.1,5a.31.31,0,0,0,0-.29l0-.12-.15-.46L7.85,4c-.06-.18-.07-.21-.1-.21H7.32m-1.55.44c0,.05,0,.06-.21.06s-.17,0-.27.26L5.15,5l-.09.25c0,.11-.05.14-.12.14s-.12,0-.12.09a4.39,4.39,0,0,1-.81,0H3.2l0,0a.21.21,0,0,0,0,.07s-.09.06-.11,0a.43.43,0,0,1,.05-.17.07.07,0,0,0,0,0,.27.27,0,0,1,.07-.14H4.83l.06-.16L5,4.83l.08-.23c.07-.22.09-.24.15-.25s0,0,.06-.05,0-.1.28-.1h.21v0m3.57,0,0,.07s0,.06.07.07.06,0,.11.16l.05.15,0,.12L9.73,5l.07.19,0,.11h.81c.94,0,.87,0,.91.1a.82.82,0,0,1,.08.24c0,.09-.1.05-.14-.05s0-.06-.08-.06H9.85l0-.05s0-.05-.09-.05-.07,0-.27-.54l-.1-.27a.13.13,0,0,1,0-.05.07.07,0,0,0,0,0l0-.08,0-.07H9.1c-.2,0-.23,0-.21-.08a1.34,1.34,0,0,1,.46,0m-4.16.25-.06.16L5,4.9,5,5.08l0,0s0,.11,0,.12,0,0,0-.06L5,5.1,5,5l.05-.15,0-.11a.44.44,0,0,1,0-.1.09.09,0,0,0,0,0,.06.06,0,0,1,0,0s0-.08,0-.08l0,0m4.26,0,.08.22.09.26a1.78,1.78,0,0,0,.13.34s0,0,0-.07a.44.44,0,0,1,0-.1l0-.11L9.6,4.79c-.11-.31-.13-.35-.14-.36h0m-6.21.94v0H4c.68,0,.78,0,.78,0s-1.52,0-1.55,0m6.65,0s.1,0,.78,0c.87,0,1,0,.29,0a4.82,4.82,0,0,0-1.07,0m-3,.28.46,0,.46,0-.46,0-.46,0m5.88.66v0l.06,0a.11.11,0,0,1,.1,0l.2,0c.2,0,.32,0,.32.07s0,0,0,0,.05,0,.05,0a0,0,0,0,1,0,0h.19c.26,0,.25,0,.25.22s0,.26-.13.24-.07,0-.07,0,0,0,0,0,0,0,0,0,0,0,0,0,0,0,0,0-.06,0-.06,0,0,0-.06,0,0,0,0,0,0,0,.05,0,0,0,0,0a0,0,0,0,1,0,0h0s0,0-.05,0,0,0-.07,0,0,.29,0,.79a3.13,3.13,0,0,1,0,.79s-.06,0-.12,0L13,8.21c-.2-.22-.2-.21-.18-.55a1.32,1.32,0,0,0,0-.45.27.27,0,0,0,0,.16,0,0,0,0,1,0,0,.27.27,0,0,0,0,.09c0,.07,0,.11,0,.06a0,0,0,0,0,0,0,0,0,0,0,1,0,0c0-.05-.05,0-.05,0s0,.05,0,0,0,0,0,.08,0,0,0,0,0,0,0,0,0,.11,0,.11v0l0,0s0,0,0,.1,0,.12,0,.14A4.48,4.48,0,0,1,12,8h-.1V8a.12.12,0,0,1,0-.08s0,0,0,0,0,0,0,0A.91.91,0,0,0,12,7.35a1.16,1.16,0,0,0-.34,0,.79.79,0,0,0,0,.48.24.24,0,0,1,.07.15V8H11V8s0,0,0,0,0,0,0-.06,0-.05,0-.06,0,0-.07.06,0,0,0,0,0,0,0,0a.4.4,0,0,1-.16.06l-.14,0h-.11l-.12,0s0,0-.08,0l-.11,0a.69.69,0,0,1-.26-.08l-.08,0a1,1,0,0,1-.25-.25s0,0,0,0,0,0,0,0a.14.14,0,0,1,0,.06s0,0,0,0,0,0-.06,0l0,.05,0,0s0,0,0,0l0,0s0,0,0,0,0,0,0,0,0,0,0,0,0,0,0,0,0,0,0,.06V8H8.71V8a.35.35,0,0,1,.06-.13c.07-.1.07-.12.05-.33s0-.2-.08-.2,0,0,0,0a.19.19,0,0,0-.14-.14l-.06,0s-.07,0-.06.15a.39.39,0,0,1,0,.13l0,0s-.06,0-.14,0l-.11,0a.05.05,0,0,1,0,0,0,0,0,0,0,0,0H8v.22c0,.19,0,.23,0,.25s.09.12.09.16V8H7.44V8a.35.35,0,0,1,.09-.17s0-.09,0-.55,0-.58,0-.58h0l0,0a.16.16,0,0,1,0-.16.42.42,0,0,1,.17,0l.16,0,.11,0c.09,0,.1,0,.1,0a.8.8,0,0,1,.33,0c.16,0,.21,0,.21.05H8.37c-.09,0-.09,0,.05,0h.2l.06,0,0,0V6.42h.51c.11,0,.23,0,.23.05s0,0,0,0h.06s.08,0,0,0,0,0,0,0h.06c.06,0,.1,0,.1,0s0,0,0,0l0,0s0,0,0,0,.14,0,.14-.06a1,1,0,0,1,.54,0l.08,0h.05a.43.43,0,0,0,.19.08,0,0,0,0,1,0,0s0,0,0,0,0-.07,0,0,0,0,0,0,0,0,0,.08.05,0,.05,0a.07.07,0,0,1,0,0s0,0,0-.07,0-.09,0-.08h.36c.35,0,.39,0,.39.07s0,0,0,0,0,0,0,0,0,0,0,0,0,0,0,.06,0,.08,0,0,0,0,0,0,0,0,0,0a.09.09,0,0,0,0-.07l0,0,0,0s0,0,.32,0,.28,0,.28,0,0,0,0,0l0,0s0,0,0,0,0,0,0,0h0s0,0,.06,0,0,0,0,0,0,0,0,0h0s.1,0,.1,0,0,0,.07-.05,0,0,0,0m-9.58,0c.06,0,.07,0,0,0s-.12,0,0,0,.11,0,.08,0,0,0,0,0,.11,0,.11.22,0,.24-.08.24l0,0s0,0,0,0l0,0s0,0,0,0,0,0,0,.06a.11.11,0,0,0,0,.1.48.48,0,0,1,0,.35s0,0-.12,0L3,7.39s0,.09,0,.1,0,0,0,0,0,0,0,0l-.05,0a0,0,0,0,1,0,0s0,0,0,0a.58.58,0,0,1,0,.1s0,0,0,0l0,0h0l0,0s0,0,0,0,0,0,0,0,0,0,0,0,0,0,.05,0L3,7.7s0,0,0,0,0,0,0,0,0,0,0,0,0,0,0,0a.43.43,0,0,0,.16,0s.07,0,.09,0,0,.07,0,.21V8H2.22V8a.46.46,0,0,1,.06-.13l.06-.08V7.25a2,2,0,0,0,0-.54c0-.05-.07,0-.08,0s0,.17,0,.14a.34.34,0,0,1,0-.09c0-.05,0-.06,0-.07s0,0,0,0h0s0,0,0,0a0,0,0,0,0,0,0,.33.33,0,0,1,0-.23h.12c.1,0,.17,0,.12,0s.45-.13.71-.08m5,0h0m-6.1.13h0c.06,0,0,.17-.09.24l0,0V8l-.18.21c-.3.35-.27.4-.29-.57s0-.88,0-.88l-.26.06c-.3.08-.31.08-.31-.19s0-.2,0-.21a10.41,10.41,0,0,1,1.18,0m2.34,0,.07.12c.1.2.18.38.18.39l.07.15.14.29a2.45,2.45,0,0,0,.24.46c.11.15.12.15-.32.15H4.45V8a.24.24,0,0,1,.06-.12l.06-.08,0-.07,0-.07H4l0,0s0,.11,0,.12A.29.29,0,0,1,4,8V8H3.51V8s0-.08.09-.17a2.34,2.34,0,0,0,.19-.35l.11-.23L4,7a1.17,1.17,0,0,1,.13-.25,0,0,0,0,0,0,0,.45.45,0,0,1,0-.1l0-.09c0-.05.16-.08.2,0m1.47,0,.06.1,0,.07.06.09a2.61,2.61,0,0,0,.24.37,1,1,0,0,0,.15-.22v0l0,0,.05-.09c0-.06,0-.08,0-.14s-.05-.13,0-.15a5.81,5.81,0,0,1,.65,0s0,.11,0,.17-.07.09-.08.63v.51l0,.05.06.08a.1.1,0,0,1,0,.08V8H6.91C6.54,8,6.49,8,6.49,8a.43.43,0,0,1,.12-.19,2.48,2.48,0,0,0,0-.34c0-.34,0-.34,0-.31l0,0a1.35,1.35,0,0,1-.15.24v0a.92.92,0,0,1-.18.25.06.06,0,0,1-.07,0A1,1,0,0,1,6,7.43H6l0,0-.07-.11-.09-.14,0-.05v.35a2.73,2.73,0,0,0,0,.35l0,.06c.11.16.1.17-.16.18S5.35,8,5.35,8a.29.29,0,0,1,.1-.17,3.79,3.79,0,0,0,0-.55V6.72l0-.09c-.09-.18-.07-.19.21-.19h.22l0,0m3.79.12s0,0,0,0l0,0s0,0,0,0m2,0,0,0,0,0s0,.06,0,.19v.17h.11a.11.11,0,0,1,.09,0h.05l0,0s0,0-.05,0-.11,0,0,0,.1,0,0,0-.07,0-.05-.08.08-.05.08,0l0,0s0,0,0,0V6.73h-.07l-.08,0s0,0,0,0,0,0,0,0,0,0,0,0l0,0h0s0,0,0,0,0,0-.08,0M10,6.79s0,0,.12.07h0s-.05,0,0,0,0,0,0,0,0,0,0,0a0,0,0,0,1-.06,0s0,.16,0,.28a.75.75,0,0,0,.21.39c.09.09.13.11.13.09s0,0,0,0l0,0s0,0,0,0a.12.12,0,0,1,0-.06s0,0,0,0-.05,0-.05,0l0,0s0-.22,0-.25,0-.05.05-.05,0,0,0-.09a0,0,0,0,1,0,0,0,0,0,0,0,0-.07s0,0,0,0h0l0,0s0-.06,0-.06l-.19-.13-.08,0-.07,0s-.14,0-.14,0m.78.06s0,0,0,0,0,0,0,0h0m-6.6.29c-.12.26-.12.24,0,.24h.12a2.8,2.8,0,0,0-.13-.26l0,0m8.35.23s0,.07,0,0,0,0,0,0h0m-9.63.17s0,0,0,0H2.9s0,0,0,0m.65.85a.27.27,0,0,1,0,.21s0,0-.11,0l-.09,0v.27c0,.26,0,.28,0,.32s0,.1,0,.1c-.37,0-.38,0-.31-.11l0-.06V8.53l-.07,0c-.12.08-.16.06-.16-.08s0-.12.36-.12a1.25,1.25,0,0,1,.34,0m1.14.15.12.24A2.35,2.35,0,0,0,5,9.15c.08.07,0,.1-.19.1s-.22,0-.18-.1,0-.11-.11-.11-.19,0-.13.1,0,.11-.11.11-.22,0-.15-.08.27-.52.34-.68.13-.16.23.05m1.45-.12c.15.08.18.14.1.18s-.14.09-.19.06-.24-.12-.24,0a.41.41,0,0,0,.32.37c.1,0,.15,0,.1.09a.4.4,0,0,1-.66-.29.42.42,0,0,1,.31-.46H6a.41.41,0,0,1,.2,0m1.5,0c0,.09,0,.14,0,.15s-.12,0-.12,0h0s0,0,0,.16c0,.38,0,.39,0,.42s0,.09,0,.1a1,1,0,0,1-.35,0s0-.1,0-.12a2.05,2.05,0,0,0,0-.54l-.09,0L7,8.63l0,0a.2.2,0,0,1,0-.2s.05,0,.36,0h.33v.07m1.2-.06s0,.07,0,.07-.09.56,0,.68,0,.11-.18.11-.23,0-.17-.11,0-.06,0-.32,0-.3-.05-.34a.06.06,0,0,1,0-.09.91.91,0,0,1,.38,0m1.31,0a.37.37,0,0,1,.19.11c.06.05,0,.08-.08.14l-.1.05-.06,0c-.17-.12-.2-.12-.2,0s.13.33.37.37.09.08,0,.14a.42.42,0,0,1-.47-.67.39.39,0,0,1,.41-.14m1.34,0c.2,0,.23.13.08.21l-.1.05-.06,0c-.12-.06-.1,0,0,.07s.22.17.22.29-.31.35-.6.17c0,0,0-.06.06-.11s.16-.08.23,0l.1.06s0-.08-.15-.17a.89.89,0,0,1-.16-.14l0,0a.22.22,0,0,1,0-.1c0-.19.16-.29.38-.24m.73.06c0,.07,0,.09-.1.09s-.12,0-.12-.09.19-.08.22,0m-7.74.37c0,.06,0,.06,0,.06s.06,0,0-.08,0,0,0,0m.68,1.28,0,.05h1c1.13,0,1,0,1,.26s.09.19.2.12l.05,0v-.16c0-.13,0-.16,0-.17H9.44v0c0-.07.1-.07.1,0a.72.72,0,0,1-.08.23l0,0H7.69v.05c0,.06,0,.1-.12.15s0,0,0,.08-.19.19-.27.12l-.05,0s-.07-.05-.07-.1,0-.06-.06-.08S7,10.5,7,10.43v-.06H6.1c-1,0-.91,0-1-.15s0-.17,0-.17,0,0,.06.05m.76.12-.71,0h.9c1,0,.93,0,.93.09s0,.11,0,.11,0-.23,0-.23H6m1.55.12c0,.14,0,.15,0,0a.26.26,0,0,1,0-.09h1.8s-.29,0-.92,0H7.53v.11m-.32.31c0,.08.2.09.23,0s0,0-.05,0,0,0-.1,0l-.07,0s0,0,0,0" transform="translate(6 1)"/><path id="path2" class="cls-3" d="M7,3.54c.26,0,.27,0,.3,0s.07,0,.08,0h0a.08.08,0,0,1-.06,0l0,0H7m.59,0h0m-.79.13,0,0h0a4.57,4.57,0,0,1,1.11,0l0,0s0,0,0,0a5.5,5.5,0,0,0-1.11,0M8,3.75l0,.1s0,.07,0,.07A.69.69,0,0,0,8,3.73s0,0,0,0m-1.16,0h.44a1.91,1.91,0,0,1,.47,0s0,0,0,0a5.05,5.05,0,0,0-.91,0m1,.08a.1.1,0,0,0,0,0s0,0,0,0a.1.1,0,0,0,0,0s0,0,0,0m.31.29,0,.06s0,0,0,0l0-.06s0,0,0,0M5.3,4.27a.13.13,0,0,0,0,.06s0,0,0,0l0-.05h0l0,.05m3.61,0s0,.05.19.05a.5.5,0,0,1,.2,0s0,0,0,0,0,0-.22,0-.17,0-.17,0,0,0,.22,0h0c-.18,0-.22,0-.22,0m-3.16,0s-.05,0-.18,0-.22,0-.21.05h0s0,0,.19,0,.22,0,.19,0h0m3.63.06a.08.08,0,0,0,0,0s0,0,0,0a.13.13,0,0,0,0,.06s0,0,0,0a.08.08,0,0,1,0,0s.06,0,.11.18.06.16.06.14,0,0,0,0a1.25,1.25,0,0,0,.13.36s0,0,0,0,0,.14.05.14,0,0,0,0L9.72,5c-.1-.29-.14-.39-.15-.42a.15.15,0,0,1,0-.05.15.15,0,0,0-.1-.12.11.11,0,0,1-.06,0l0,0v0m-.06,0,0,.06s0,0,0,0l0-.06s0,0,0,0m-4.09,0a.08.08,0,0,0-.06,0,1,1,0,0,0-.08.25s0,0,0,0,0,0,0,0l0,.06A1,1,0,0,0,4.94,5s0,0,0,0h0c-.06.21,0,.19-.32.2h0c.27,0,.35,0,.35,0a.62.62,0,0,1,0-.13A.36.36,0,0,0,5,5s0,0,0,0,0,0,0,0l0-.07a.94.94,0,0,0,.08-.25s0,0,0,0,0,0,0-.07.06-.13.09-.12a0,0,0,0,0,0,0v0H5.22M8,4.39l0,.06s0,0,0,0l0-.06s0,0,0,0m-1.53,0a.12.12,0,0,0,0,.05l0,0a.12.12,0,0,0,0-.05l0,0m1.8.09a.22.22,0,0,0,0,.07c0,.06,0,0,0,0s0,0,0,0m-3.13.06a.12.12,0,0,0,0,.05l0,0a.12.12,0,0,0,0-.05l0,0m1.22.15a.12.12,0,0,0,0,.05l0,0a.12.12,0,0,0,0-.05l0,0m3.1,0,0,.06s0,0,0,0l0-.06s0,0,0,0m-4.33.08a.12.12,0,0,0,0,.05l0,0a.12.12,0,0,0,0-.05l0,0m2.12,0s0,0,0,0h0s0,0,0,0-.06,0-.07,0m.88,0c0,.14.05.17,0,.12a.43.43,0,0,0,0-.11s0,0,0,0m-1.67.06s0,.13,0,.13,0,0,0,0a.12.12,0,0,1,0-.09.1.1,0,0,0,0-.05l0,0m1,0,.17.2.1.11,0,0L7.54,5,7.4,4.82l.07.09m-.18,0,0,0,0,0c.05-.06.06-.05.13,0L7.49,5l-.06-.08c-.08-.1-.1-.1-.14,0m-2.15,0a.24.24,0,0,0,0,.08s0,0,0-.07a.24.24,0,0,0,0-.08s0,0,0,.07m3,0a.15.15,0,0,1,0,.09c0,.07,0,.08,0,0s0-.1,0-.14,0,0,0,0M7.19,5a1,1,0,0,0-.13.18l.07-.09L7.23,5c0-.06,0,0,0,0M6.31,5s0,.05.07.05,0,0,.05.06l0,0A.16.16,0,0,0,6.37,5s0,0,0,0,0,0,0,0l0,0m1,0s0,0,0,0,.05,0,.13.05l.07.08-.07-.09C7.35,5,7.33,5,7.29,5m-.2,0s0,.05,0,0,.08-.1.07-.1l0,.06M8.35,5l0,0h0s.08,0,.1,0,0,0,0,0l0,0m.15,0c0,.07,0,.08-.08.09s-.09,0-.09,0,0,0,0,0l.09,0c.11,0,.12,0,.1-.08L8.5,5s0,0,0,0m1.15,0,0,.06s0,0,0,0l0-.06s0,0,0,0m-3.07,0a.22.22,0,0,0,.07.12s0,0,0,0l0-.07,0,0m.45,0C7,5.2,7,5.22,7,5.22l0-.05c0-.05,0-.07,0,0m.61,0,.07.08h0l-.07-.08-.07-.08.07.08m2,0a.32.32,0,0,0,0,.08s0,0,0,0,0-.13,0-.11M5,5.24c0,.08,0,.08-.1.08l-.09,0s0,0,0,0a12.08,12.08,0,0,0-1.61,0,.08.08,0,0,0,0,.05,0,0,0,0,1,0,0,.2.2,0,0,0,0,.08c0,.05,0,.08-.06.08s0,0,0,0,0,0,.07-.08l0-.08H4.81l0-.05s0-.05.09-.05l.08,0a.44.44,0,0,0,.06-.16l0,.07m2.28,0,0,0,0,0,0,0,0,0a.13.13,0,0,0,.12,0c.08,0,.09,0,0-.08l0,0,0,0c0,.05,0,.06,0,.06a.11.11,0,0,1-.1,0c0-.05,0-.05-.08,0m-.82,0s0,0-.06,0H6.37s.11,0,.12,0a0,0,0,0,0,0,0s0,0,0,0m.54,0a.73.73,0,0,1-.43,0h0c0,.07.39.08.45,0l0,0,0,0m-.9,0h.06c.1,0,.11,0,0,0H6.12m2.28,0s0,0,0,0a.11.11,0,0,1,.16,0s0,0,0,0-.15-.11-.18,0m-.21,0h0m-4.78,0h0m3.8,0,0,.06,0,0c0-.05.05-.07,0-.07l0,.05m2.82,0h0m-2.72,0s0,0,0,0,0,0,.05,0,0,0,0,0l0,0,0,0m-1.23,0s0,0,.05,0,.05,0,.07.06l0,.05h.15a.41.41,0,0,1,.17,0s0,0,0,0,0,0-.19,0H6.24l0-.05s0-.05-.07-.05-.05,0-.06,0,0,0,0,0m2.45,0a.13.13,0,0,0-.07.06l0,0H8.3c-.15,0-.18,0-.18,0s0,0,0,0,0,0-.37,0-.41,0-.44-.08,0,0,0,0a.12.12,0,0,0,0,.06l0,0h.36c.32,0,.36,0,.35,0s0,.08,0,.05,0,0,0,0a.08.08,0,0,1,0,.05s0,0,0,0-.08,0-.69,0h-.7l0,0c0-.05,0-.06,0,0s0,.06,0,0h0s0,0,.11,0l.09,0s0,0,0,0l0,0,0,0,0,0s0,0,0,0,0,.07.17.07H7c-.12,0-.15,0-.17,0s0,0,0,0,0,0,.51,0h.48l0-.05s0-.05.11-.05.1,0,.14-.09l0-.07h.14c.15,0,.18,0,.2-.08a0,0,0,0,1,0,0l0,0h0m1.21,0a.1.1,0,0,1,.1.06l0,.05h.49a10,10,0,0,1,1.12,0s0,0,0,0-.06,0-.38,0a5.3,5.3,0,0,1-1.23-.05s0,0,.45,0H9.74m-4.94,0s0,.06-.54.06c-.94,0-1.07,0-1-.05a13.47,13.47,0,0,1,1.59,0m6.32,0a1.13,1.13,0,0,1,.34,0s0,0,0,0-.06,0-.34,0h0m-7.23.06h0m3.24,0a.88.88,0,0,1-.27,0h0c.22,0,.25,0,.28,0l0,0,0,0m3.75,0h0m.7,0,0,.06s0,0,0,0l0-.06s0,0,0,0m-4.41.16h0m.73,0,0,0a.06.06,0,0,0,0,0s0,0,0,0,0,0,0,0a0,0,0,0,0,0,0s0,0,0,0h0m-.08,0s0,0-.47,0-.47,0-.47,0,0,0,.47,0,.48,0,.47,0m-6.43.8h0m1.3,0h0m2.85,0h0m1,0s0,.19.08.19,0,0,0-.08-.06-.1.29-.11H6.54m1.36,0h0M9,6.46H9m3.93,0h0m-4.37.19c0,.18,0,.18,0,.2s0,0,0,0,.12-.36.06-.4a.65.65,0,0,0,0,.18m.16-.16a.49.49,0,0,0,.12.2,4.53,4.53,0,0,1,0,.55v.54l0,.06,0,.06,0-.05,0-.05V6.7l-.07-.09a.27.27,0,0,1-.06-.12s0,0,0,0m.7,0a0,0,0,0,1,0,0l0,0s0,0,0-.07a0,0,0,0,0,0,0s0,0,0,0m3.16,0s0,.06-.06.11l-.06.09.07-.08c.06-.08.08-.16,0-.16s0,0,0,0m.14,0a.09.09,0,0,0,0,.08s0,0,0,0a.24.24,0,0,1,0-.08v0m-7.31,0a.12.12,0,0,0,0,.07h0l0-.07s0,0,0,0m5.15,0,0,0h0s-.08,0-.08,0M.89,6.61c0,.06,0,.09,0,.06a.66.66,0,0,0,0-.11s0,0,0,.06m11-.08.05.07.05.06,0-.07-.05-.07h0M2,6.62A.24.24,0,0,0,2,6.74s0,0,0,0A.47.47,0,0,1,2,6.61l0-.08L2,6.62m.22-.08.06.09.06.08V7.77l0,.05c0,.05,0,.06,0,.06l0-.06,0-.06V6.71l-.05-.07c-.06-.08-.08-.1-.08-.09M7.5,6.6l0,0,0,0,0,0,0,0m4.16,0-.05.09h0c.11-.15.15-.22.05-.09m-1.91,0-.06.06.06-.06c.06-.06.07-.07.06-.07l-.06.06m1,0,.06.07s0,0,0,0l-.06-.07s0,0,0,0m-3.24,0,0,.05s0,0,0,0a.07.07,0,0,0,0-.05s0,0,0,0M12,6.88v.2h0v-.2a1,1,0,0,0,0-.21.72.72,0,0,0,0,.19m-9.19,0v.19h0V6.88c0-.16,0-.17,0-.17s0,0,0,0-.06,0-.06.17m4.26.35v.53l0,.07.06.08s0,0,0-.07l-.06-.08V7.23m1-.51A1.18,1.18,0,0,0,8,6.9v.16H8V6.88c0-.17,0-.19,0-.15m1.95,0a.71.71,0,0,0,0,.18s0-.11,0-.16l0,0h0l0,0m.13,0,.06,0s0,0,0,0l-.06,0s0,0,0,0m-8.62,0s0,0,0,.29v-.3h0s0,0,0,0m8.18,0c0,.05,0,.06,0,0l0,0,0,0M3,6.75a.66.66,0,0,0,.19.07l-.07,0-.1,0H3m8.64.14c0,.08,0,.12,0,.07a1.23,1.23,0,0,0,0-.15s0,0,0,.08M1.32,6.78s0,0,0,0,.07,0,0,0l-.05,0m12.11,0,.05,0s0,0,0,0-.09,0-.07,0m-7.36,0,0,.06,0,0v0l0-.06,0,0v0m-4.87,0s0,0,0,0h.05s0,0,0,0H1.21m3.38,0,0,.07,0,0,0-.07,0,0m3.71,0h0s0,0,0,0h0s0,0,0,0m2.48,0s0,0,0,0,0,0,0,0l-.05,0m-6.7,0c0,.07,0,.09,0,0a.16.16,0,0,0,0-.06l0,0m3.5,0s0,.06,0,0a.27.27,0,0,0,0-.08s0,0,0,0m-6.67,0s.07,0,.11,0,0,0,0,0a.08.08,0,0,1-.08,0s0,0,0,0m2.29,0h0s0,0,0,0h0s0,0,0,0m10.7,0-.05,0h0s.09,0,.07-.05h0m-4.31,0c0,.06,0,.06,0,0s0,0,0,0l0,0m.8,0,0,0,0,0,0,0,0,0m.22.06-.06,0,.06,0,.06,0-.06,0m2.69.74c0,.49,0,.79,0,.8h0a3.38,3.38,0,0,0,0-.8v0m-.45-.26c0,.28,0,.39,0,.25s0-.37,0-.51,0,0,0,.25M9.54,7a.18.18,0,0,0,0,.07s0,0,0-.06a.2.2,0,0,0,0-.07s0,0,0,.06m.38,0s0,.05,0,0a.22.22,0,0,0,0-.07s0,0,0,0m-4.2.26V7l0,0,0,0,0,0c-.05-.1-.05-.1-.05.22m.87-.21s0,0,0,0a2.52,2.52,0,0,1,0,.73l0,0,0,0s0-.05,0-.4,0-.42,0-.34m-2.37,0,0,0h0s0,0,0,0,0,0,0,0,0-.06-.05,0m-1,.16c0,.2,0,.21-.13.14L3,7.35a.3.3,0,0,0,.19.07.74.74,0,0,0,0-.34.45.45,0,0,0,0,.15m1.53-.14,0,.07,0,0,0-.07,0,0m3.7.1c0,.05,0,.08,0,0a.48.48,0,0,0,0-.1s0,0,0,0m-2.61,0,.14.2,0,0-.14-.2,0,0m1.76.28c0,.18,0,.26,0,.16s0-.24,0-.33,0,0,0,.17m1.93-.21s0,.07,0,0a.4.4,0,0,0,0-.09s0,0,0,0m1.06,0h0M2.8,7.52c0,.28,0,.3.06.26s0,0,0,0h0V7.53c0-.27,0-.27.09-.22l.06,0s-.05,0-.11-.07l-.05,0v.27M8,7.52c0,.26,0,.27,0,.3s0,0,0,0,0-.07,0-.28,0-.27.09-.22l.06,0L8,7.25a2.28,2.28,0,0,0,0,.27m2.44-.26a2.12,2.12,0,0,0,0,.28c0,.24,0,.27,0,.26s0,0,0,0,.05,0,.06-.27,0-.29,0-.29h0m.4,0s0,.07,0,.32,0,.28,0,.1,0-.38,0-.42l0,0,0,0m.75.06s0,0,0,0,.06,0,.2,0H12v.24a1,1,0,0,0,0,.23,1.38,1.38,0,0,0,0-.24V7.31h-.2c-.18,0-.2,0-.2,0m-5.19,0c-.05.09-.06.1,0,.06s.06-.08,0-.08l0,0m-2,0s0,0-.07,0h0c.08,0,.12,0,.07,0s0,0,0,0m5.13,0s0,.1,0,.07a.18.18,0,0,0,0-.06s0,0,0,0m2.92.12s0,.06,0,0a.33.33,0,0,0,0-.08s0,0,0,0m-6.15,0c-.08.12-.1.13-.16.06l0,0,0,0c.06.09.09.06.22-.13s0,0-.06.06m3.84,0,.08.08s0,0,0,0-.11-.1-.05,0m-.84.06s0,.07,0,0a.4.4,0,0,0,0-.09s0,0,0,0m-6,0a.18.18,0,0,1,0,.08v0a.09.09,0,0,0,0-.08s0,0,0,0m1.17,0s.05,0,.08.08l0,.07,0,.06,0,.06s.1-.13.09-.17-.07-.12-.12-.12,0,0,0,0m1.25.07c0,.07.09.24.13.24s0,0-.07-.1a.23.23,0,0,1-.05-.14v0m6.72,0s0,.05,0,0a.21.21,0,0,0,0-.07s0,0,0,0m-2.71.08.08.08-.07-.08L9.66,7.7l.07.08m-5.81,0s0,.1,0,.1l0,0a.09.09,0,0,1,0-.07s0,0,0,0l0,0m-.29.07c0,.05,0,.06,0,0s.07-.1.06-.1l-.05.07m8,0,0,.06c0,.05,0,0,0,0l0,0m-2.3,0,0,.06,0,0v0l0-.06,0,0v0m-3.87,0c-.08.1-.09.12-.06.15s0,0,0,0,0,0,0-.12.07-.12,0,0m5.67,0,0,.06a.39.39,0,0,0,.08-.11l0,.05m1.38,0,.06.06s0,0,0,0l-.06-.06s0,0,0,0m-9.14.07V8H2.8c.6,0,.56,0,.55-.12v0m1.78,0,0,0,0,0,0,0,0,0m6.8,0c-.06.08,0,.09,0,0s0-.07,0-.07l-.05.06m-3.82,0,0,.05s0,0,0,0a.12.12,0,0,0,0-.05h0m-1.56,0s0,.1,0,.1,0,0,0,0,0,0,0-.1,0-.06,0,0m.66,0a0,0,0,0,1,0,0s0,0,0,0a0,0,0,0,0,0-.08s0,0,0,0m3.84,0s0,.07,0,.07,0,0,0,0a0,0,0,0,1,0,0s0,0,0,0M7.46,8V8h0V8s0,0,0,0M5.17,8s0,0-.35,0h0c.35,0,.41,0,.36-.05s0,0,0,0M8.72,8s0,0,.06,0,0,0,0,0L8.73,8s0,0,0,0M3.54,8h0m6.63,0s.16,0,.14,0h-.14m.32,0s0,0,0,0h.07s0,0,0,0h-.07m-8.72.22a1.64,1.64,0,0,1-.22.22s0,0,0,0a.11.11,0,0,0,.07,0l.17-.2L2,8l-.19.22M9,8H9m4,.18.09.08a.86.86,0,0,0-.15-.16l.06.08M3,8.4a4.12,4.12,0,0,0,.55,0H3m4,0a.26.26,0,0,0,0,.17s0,0,0-.08V8.42h.66V8.5c0,.08,0,.08,0,.08s0,0,0,0,.08,0,.08-.09,0-.11-.35-.11a1.21,1.21,0,0,0-.34,0m1.58,0a1.22,1.22,0,0,0,.29,0H8.58m2.93,0,.05,0s0,0,0,0-.09,0-.07,0m-8.6.09s0,.06,0,0a.33.33,0,0,0,0-.08s0,0,0,0m9.17-.06s0,.1,0,.08a0,0,0,0,1,0,0c.05,0,.14,0,.09-.07a.38.38,0,0,0-.17,0m-3.54,0c0,.05,0,.07,0,.35a1.77,1.77,0,0,0,0,.29,2.15,2.15,0,0,0,0-.3v-.3l0,0,0,0,0,.06m3.08,0,0,0s0,0,0,.05,0,0,0,0,0-.06,0-.09-.06,0-.06,0m.62,0s-.05,0-.08,0,0,0,0,0,0,0,0,0m-6,0c0,.06,0,.06-.05.12l-.07,0a.44.44,0,0,0,.17-.11.12.12,0,0,0,0-.06l0,0,0,0M3,8.55,3,8.61l.09,0,.08,0v.3c0,.28,0,.3,0,.34s0,.09.16.09h0c-.18,0-.19,0-.14-.08a2.4,2.4,0,0,0,0-.65L3,8.55m.32.26v.31l0,0,0,0,0,0a1.49,1.49,0,0,1,0-.63s0,0,0,0a2.12,2.12,0,0,0,0,.31m7.83-.27s0,0,0,0l0,0c0-.05,0-.06,0,0m-6.48,0a.28.28,0,0,0,.05.1s0,0,0,0,0-.07,0-.05m1.15,0s0,0,0,0A.24.24,0,0,1,6,8.61l.07,0c0-.05-.23-.13-.25-.1m1.23,0L7,8.61l.13-.07s0,0-.08,0m2.84,0s0,0,0,0,0,0,0,0l0,0m1.38,0s.06.1.16.16l.14.1,0,0s0,0-.18-.14-.19-.16-.12-.14,0,0,0,0-.05,0-.05,0m-5.63,0,0,.06s0,0,0-.06,0-.08,0,0m4.36,0,.11.06s0,0,0,0A.43.43,0,0,0,10,8.55l0,0m1.54,0,0,0,.12-.07-.07,0m-1.25,0c-.06,0-.05,0,0,0s.07,0,0,0l-.06,0m-.41.09s0,.07,0,0a.4.4,0,0,0,0-.09s0,0,0,0m-5.15,0,0,.07,0,0,0-.07,0,0m.87.06a.66.66,0,0,0,0,.23s0,0,0-.12,0-.15,0-.11m-1.09,0a.71.71,0,0,0-.07.16h.09c-.09,0-.09,0,0-.08s0-.06,0,0,0,0,0,0,0,0,0,0m5.16.08s0,.05,0,0a.21.21,0,0,0,0-.07s0,0,0,0m-5.33,0c0,.06,0,.07,0,0s0,0,0,0l0,0m.47,0a.28.28,0,0,0,.05.1s0,0,0,0,0-.07,0-.05m1.06.1A.5.5,0,0,0,6.06,9h0L6,9l-.06,0M11.71,9a.23.23,0,0,1-.12.2l0,0c.08,0,.18-.13.17-.23V9m-.23,0,.06.06L11.49,9l-.06-.06.05.06M9.76,9a.46.46,0,0,0,.28.2l-.06,0a.41.41,0,0,1-.16-.12L9.76,9m1.57,0,.08,0c.06,0,0,0,0,0l-.08,0s0,0,0,0M4.4,9s0,0,0,0,0,0,0,0l0,0m.13,0h.08c.06,0,.08,0,.1,0s0,0,0,0,0,0-.11,0H4.53m6.69,0-.06,0,.06,0,.06,0-.06,0M4.95,9l0,.05,0,0,0,0c0-.06,0-.06,0,0m.77,0a.39.39,0,0,0,.54.07l-.07,0a.35.35,0,0,1-.43-.07c-.07-.06-.07-.06,0,0m.43,0h.06s0,0,0,0-.09,0-.05,0m4.09,0h.05s0,0,0,0h-.05s0,0,0,0m.89,0s0,.07.07.07l0,0s0,0,0,0,0,0,0,0m.36,0s.06,0,.06,0h0l0,0s0,0,0,0m-4,0,0,0,0,.05h0l0-.07,0,0m-3,.08s0,0-.12,0h0c.13,0,.17,0,.13-.06s0,0,0,0m.25,0s0,.05.19,0h0c-.17,0-.18,0-.17,0s0,0,0,0m4.19,0a.71.71,0,0,1-.35,0s0,0,0,0a.72.72,0,0,0,.37,0,0,0,0,0,0,0,0s0,0,0,0m-1.61,0h0m-2.14.85a1,1,0,0,0,.08.25H7v.07c0,.07,0,.07.08.12s.07.05.08.1,0,.06.08.11.16.06.15,0a0,0,0,0,1,0,0l.06,0s0,0,.06-.11,0-.05.08-.08l.07-.06,0,0a.88.88,0,0,1-.19.12l0,0h0s.07,0,0,.05l0,0,0,0a.16.16,0,0,1-.18-.07s0-.05.08,0,.07,0,.09,0,0,0,0,0S7,10.51,7,10.41v-.07H6.12c-.59,0-.89,0-.9,0s-.09-.25-.05-.22a.07.07,0,0,1,0,0,0,0,0,0,0,0,0,0,0,0,0,1,0,0c0,.06,0,.08.18.07h0c-.13,0-.14,0-.14,0v0h.22c.25,0,1.55,0,1.54,0H5.91c-.09,0-.1,0-.06,0H5.23l0-.06c0-.06-.06-.07-.08,0m4.34,0,0,.06a.07.07,0,0,0,0,0v0H8.66c.74,0,.78,0,.78,0a.15.15,0,0,1,0-.06.38.38,0,0,0,0-.13l0,.05m.06,0a.11.11,0,0,1,0,.06l0,.11,0,.06H8.67a4.85,4.85,0,0,0,.79,0c0-.06.11-.25.08-.25s0,0,0,0m-2.47.11,0,0s0,0,0,.14-.06.19-.08,0v-.08h0v.07c0,.08,0,.12.07.12l.05,0,.07,0h0c-.08-.05-.08-.06-.08-.2a1,1,0,0,0,0-.16s-.11,0-.11,0m.43,0a.92.92,0,0,0,0,.16v.16l-.05,0-.05,0s.09,0,.1-.06l0,0s0,0,0,0a.28.28,0,0,1,0-.13v-.11H9.38s-1.88,0-1.89,0m-1.69.09h0m.51,0h0m1.29,0a.21.21,0,0,0,0,.08.18.18,0,0,1,0,.09s0,0,0,0a.37.37,0,0,0,0-.18h0m.07.08s0,0,0,0l.12,0h0c-.1,0-.12,0-.12,0" transform="translate(6 1)"/><path id="path3" class="cls-4" d="M6.71,3.54s-.06.1-.05.11,0,0,0,0,0-.06.05-.06H6.8s0,0,0,0l-.07,0m.58,0s0,0,.08,0l0,0h0s0,0,0,0l0,0s0,0,0,0m.69,0a.41.41,0,0,1,0,.12c0,.06,0,.1,0,.09A.48.48,0,0,0,8,3.54H8M6.79,3.7s0,0,0,0,0,0,0,0v0H7.88l0,0s0,0,0,0,0,0,0,0l0,0H7.34c-.53,0-.54,0-.56,0m0,0a.34.34,0,0,0,0,.08s0,0,0-.06v0h0l0,0m1,0,0,.14c.05.15.06.14,0,0s-.06-.16-.06-.13m-1.26.09c0,.09,0,.13,0,.13a.78.78,0,0,0,.06-.19l0,.06m.17,0,0,.13a.55.55,0,0,0,0,.13h0l0-.13a.36.36,0,0,0,0-.12h0m1.32,0L8.14,4a.76.76,0,0,0,.06.16,2,2,0,0,0-.12-.36s0,0,0,0m-1.19,0s0,0,0,0a2.36,2.36,0,0,1,.43,0H6.89m.87,0,0,0s0,0,0,0a.06.06,0,0,0-.06-.06s0,0,0,0M6.84,4a.46.46,0,0,0,0,.11.35.35,0,0,0,0-.09.42.42,0,0,0,0-.11.32.32,0,0,0,0,.09M8,3.88A.76.76,0,0,0,8,4.06,1,1,0,0,0,8,3.87H8m-1.19,0s0,0,0,0l0,0s0,0,0,0,0,0,0,0M6.51,4a.16.16,0,0,0,0,.08s0,0,0,0l0-.07s0,0,0,0,0,0,0,.06M7.85,4a.49.49,0,0,0,0,.09l0,.1h0a.4.4,0,0,0,0-.11c0-.06,0-.1,0-.09m.09,0,0,.16A.47.47,0,0,0,8,4.3,1.33,1.33,0,0,0,7.95,4s0,0,0,0m-1.3.07s0,0,0,0l0,0s0,0,0,0,0,0,0,0m.05,0a.26.26,0,0,0,0,.06s0,0,0,0a.17.17,0,0,0,0-.06l0,0m.09,0v0s0,0,0,0a.05.05,0,0,0,0,0s0,0,0,0m-.33.11c0,.07,0,.08,0,0a.14.14,0,0,0,0-.06s0,0,0,0m.16,0s0,0,0,0l0,0s0,0,0,0l0,0m.09.18a1.54,1.54,0,0,0-.06.2,1.34,1.34,0,0,0,.07-.18,1.37,1.37,0,0,0,.06-.2,1.18,1.18,0,0,0-.07.18m1.36-.18a.49.49,0,0,0,.06.15.52.52,0,0,0,0-.16h0m-2.51,0c.21,0,.22,0,.21,0s0,0-.19,0H5.38l0,.05c0,.07,0,.09,0,0l0-.05h.16c.21,0,.23,0,.22-.06v0H5.55m2.37,0a.1.1,0,0,0,0,0s0,0,0,0a.1.1,0,0,0,0,0s0,0,0,0m1,0c0,.06,0,.07.2.08l.19,0,0,0,0,0v0c0-.07,0-.07-.22-.08s-.18,0-.18,0,0,0,.23,0h.21a1.35,1.35,0,0,0-.46,0m-3.61,0,0,.07,0,0c-.05,0-.08,0-.11.14s0,.1,0,0,.06-.14.1-.14,0,0,.07-.08,0-.1,0,0m1.28.07c0,.11,0,.14,0,0s0-.13,0-.13l0,.09m1.68-.07,0,.07,0,.05V4.33s0-.1,0-.07m1.13,0a.13.13,0,0,0,.09.1.14.14,0,0,1,.09.13.06.06,0,0,0,0,0s0-.06,0-.13a.09.09,0,0,0-.07-.06.09.09,0,0,1-.06,0s0-.06,0,0M8,4.3A.83.83,0,0,0,8,4.5a.48.48,0,0,0,0-.11c0-.06,0-.1,0-.09m.09,0a.1.1,0,0,0,0,0s0,0,0,0a.1.1,0,0,0,0,0s0,0,0,0m.08,0a.32.32,0,0,0,0,.08l0,.09,0,0a.34.34,0,0,0,0-.1c0-.05,0-.09,0-.08m-1.73,0s0,0,0,0l0,0a.06.06,0,0,0,0,0l0,0M5.2,4.4a.93.93,0,0,0-.1.27s0,0,0-.07.11-.24.09-.14,0,0,0,0,0-.08,0,0m1.38.07a.38.38,0,0,0,0,.11.28.28,0,0,0,0-.09.4.4,0,0,0,0-.11.3.3,0,0,0,0,.09M8.28,4.4s.06.15.06.13a.32.32,0,0,0-.05-.13h0m1.15,0a.13.13,0,0,0,0,.07s0,0,0,0,0,0,0,0l0,0c0,.07.11.3.11.29s-.14-.38-.16-.32m-1.33.11a.32.32,0,0,0,0,.09.6.6,0,0,0-.06-.18s0,0,0,.09m-1.6,0s0,0,0,0,0,0,0,0,0,0,0,0l0,0m2.85,0a.05.05,0,0,0,0,0s0,0,0,0,0,0,0,0m-4.11.14a.89.89,0,0,0,0,.14l.05-.13a.68.68,0,0,0,0-.14.57.57,0,0,0-.05.13M8,4.54a.11.11,0,0,0,0,.05s0,0,0-.05v0m-1.72.09c0,.12,0,.13,0,0a.31.31,0,0,0,0-.1s0,0,0,.09m3.17-.06a.1.1,0,0,0,0,0s0,0,0,0a.1.1,0,0,0,0,0s0,0,0,0m-1.13,0,0,.15a.59.59,0,0,0,0,.12,1.47,1.47,0,0,0-.09-.28s0,0,0,0m1.24,0a.1.1,0,0,0,0,0s0,0,0,0a.1.1,0,0,0,0,0s0,0,0,0m-1.39,0a.1.1,0,0,0,0,0s0,0,0,0a.1.1,0,0,0,0,0s0,0,0,0m1.2,0,0,.1s0,.08,0,.07a.67.67,0,0,0-.06-.19s0,0,0,0M5,4.65c0,.1,0,.14,0,.12a.55.55,0,0,0,.06-.18s0,0,0,.06m.12,0a.56.56,0,0,0,0,.16.27.27,0,0,0,0-.09c0-.07,0-.14,0-.07m1.42.1,0,.15s0,0,0,0a1.47,1.47,0,0,0,.09-.28.59.59,0,0,0,0,.12m-.06-.08s0,0,0,0,0,0,0,0,0,0,0,0l0,0m-.08,0c0,.07,0,.08,0,0a.14.14,0,0,0,0-.06s0,0,0,0m1.61,0s0,.07,0,0a.05.05,0,0,0,0,0h0m.09,0a.54.54,0,0,0,.06.15.48.48,0,0,0,0-.16h0m1.36,0a.93.93,0,0,0,.07.18.84.84,0,0,0-.06-.19h0m.11,0s.12.35.13.36,0,0,0-.12l-.05-.15c0-.05,0-.1,0-.08m-1.38,0,0,.06s0,0,0,0l0-.06s0,0,0,0m-3.17.07,0,.1A.9.9,0,0,0,5,5.05L5,5l.06-.17a.39.39,0,0,0,0-.11s0,0,0,.07M6.5,4.7a.07.07,0,0,0,0,0s0,0,0,0,0-.07,0,0m3.11.08,0,.09,0,.09h0a.77.77,0,0,0-.08-.22s0,0,0,0m-3.15.05a.26.26,0,0,0,0,.06s0,0,0,0a.17.17,0,0,0,0-.06l0,0m.8,0L7.2,4.9a1.24,1.24,0,0,0-.14.19l.12-.15a.77.77,0,0,0,.1-.15l0,0m.88,0a.36.36,0,0,1,0,.17s0,0,0,0,0-.08,0-.16,0-.06,0,0m.14,0a.17.17,0,0,0,0,.05l0,.06,0,0a.2.2,0,0,0,0-.08s0-.07,0-.06m1.19,0a.1.1,0,0,0,0,0s0,0,0,0a.1.1,0,0,0,0,0s0,0,0,0M5,4.87a.19.19,0,0,0,0,.08s0,0,0-.06a.2.2,0,0,0,0-.08s0,0,0,.06m3.24,0s0,.07,0,0a.05.05,0,0,0,0,0h0m-2,.1a.39.39,0,0,0,0,.1.3.3,0,0,0,0-.09.39.39,0,0,0,0-.1.3.3,0,0,0,0,.09M7.57,5l.17.2a.76.76,0,0,0,.3,0H7.9c-.15,0-.16,0-.18,0l-.08-.1-.18-.22h0A1,1,0,0,0,7.57,5m2-.15a.1.1,0,0,0,0,0s0,0,0,0a.1.1,0,0,0,0,0s0,0,0,0m-2.25,0a2.21,2.21,0,0,1,.27.3c.09.12.1.12.22.12H7.71L7.6,5.15,7.48,5l-.07-.08s-.07-.07-.08-.07,0,0,0,0m1.11,0L8.5,5c0,.11,0,.13,0,.14s0,0,0,0,0,0,0-.17-.06-.17-.06-.14m-3.39,0s0,0,0,0l0,0s0,0,0,0l0,0m4.43,0a1.83,1.83,0,0,0,.1.27,2,2,0,0,0-.1-.28h0M5.12,5c-.06.16-.06.18,0,.15a1.43,1.43,0,0,0,.09-.26.51.51,0,0,0,0,.12m1.4-.09a.66.66,0,0,0,.08.19l0-.12c0-.06,0-.09,0-.07M7.24,5l-.09.12-.09.11s0,.06,0,0a2.61,2.61,0,0,0,.28-.37L7.24,5m1,0,0,.07s0,0,0,0a.12.12,0,0,0,0-.07s0,0,0,0M6.34,5s0,0,0,0,0-.1,0-.1l0,.06m.1,0a.43.43,0,0,0,.06.16s0,0,0-.06l0-.09h0M4.92,5a.12.12,0,0,0,0,.06s0-.07,0-.09,0,0,0,0M5,5a.12.12,0,0,0,0,.05L5,5A.12.12,0,0,0,5,5L5,5m2.15.13c-.11.14-.14.17-.17.17s0,0,0,0,0,0,0,0l0,0-.31,0H6.34l0-.05a.13.13,0,0,0-.23,0s0,.07.07.07,0,0,.06.05l0,.05h.32l0,0,0,.08,0,0s0,0,0-.08l0-.08H6.23l0-.05s0-.05-.07-.05-.07,0,0-.09a.11.11,0,0,1,.2,0l0,.05H7l.14-.17C7.32,5,7.34,5,7.38,5s0,0,0,0-.07,0-.2.15M8.33,5s0,0,0,0a.1.1,0,0,0-.08.08l0,0a.07.07,0,0,1,.06,0s.06,0,0-.06,0,0,0,0M9.69,5a1.15,1.15,0,0,0,.05.17h0a.31.31,0,0,0,0-.1c0-.09,0-.11,0-.09m0,0a.1.1,0,0,0,0,0s0,0,0,0a.1.1,0,0,0,0,0s0,0,0,0M6.38,5a.12.12,0,0,1,.06.05c0,.06,0,0,0,0s0,0-.06,0,0,0,0,0M9.75,5a.63.63,0,0,0,.06.17s0-.06,0-.14l0,0M8.08,5.1a.12.12,0,0,0,0,.06s0,0,0,0,0-.08,0,0m-.58,0c.1.11.1.12,0,.12a.13.13,0,0,1-.12,0l0,0,0,.06,0,.07-.07.09-.07.08H6.85c-.22,0-.28,0-.23,0h0a.67.67,0,0,1,.23,0c.27,0,.24,0,.38-.17s.09-.11.14-.06.18.06.19,0a.56.56,0,0,0-.15-.2l.06.09m-2.63,0,0,.08H4a5.57,5.57,0,0,0,.85,0,.4.4,0,0,0,0-.15s0,0,0,.08M5,5.11l0,.07s0,0,0,0,0,0,0-.06a.2.2,0,0,0,0-.08l0,0m2,0,0,.05H7l0-.06s0-.06,0-.06l0,.05m1.12,0c0,.09,0,.09-.1.1H8c.06,0,.18-.15.14-.19s0,0,0,.08m1.55-.08,0,.07s0,0,0,0a.22.22,0,0,0,0-.07l0,0m-3.06.05s.06.07.07.05l0,0s0,0,0,0a0,0,0,0,0,0,0s0,0,0,0m-1.71,0q0,.09,0,.09s0,0,0,0a.08.08,0,0,1,0-.06s0,0,0,0l0,0m1.41,0c0,.08.18.14.19.06s0,0,0,0a.09.09,0,0,1-.14,0s0-.06,0,0m2,0c0,.06-.13.07-.13,0s0,0,0,0,0,.07.07.06.17-.1.11-.1l0,0M5,5.25c0,.08,0,.09-.12.1s-.07,0-.08,0v0l0,0a.11.11,0,0,1,.09,0,.15.15,0,0,0,.12-.15s0,0,0,0m1.51,0a.12.12,0,0,0,.09.1s0,0,0,0a.1.1,0,0,1,0-.05s0-.05,0,0m1.84.06,0,.05H7.88c-.41,0-.48,0-.51,0s-.15.06-.1.13.08.07.43.07.34,0,.34,0,0,0,0,0H7.36l0,0c-.06,0-.06-.07,0-.11s0,0,.07,0,.08,0,.51,0h.48l0-.05c.06-.1.21-.06.19,0s0,0,0,0a.06.06,0,0,0,0,0c0,.06,0,.07-.2.07H8.15l0,.07c0,.09,0,.09-.14.09s-.08,0-.11.05l0,.05h-1l0-.05s0-.05-.11-.05h0c.06,0,.08,0,.09,0s0,.06.54.06.54,0,.54-.09,0,0,.08,0,.12,0,.15-.09l0-.06h.3l0-.05s0-.05.07-.05.07-.05,0-.11a.12.12,0,0,0-.2,0m1.38,0s0,0,0,0h0a0,0,0,0,0,0,0s0,0,0,0,0,0,0,0m.07,0H11.5s-1.67,0-1.66,0m-.21,0c0,.05,0,.09.11.09s.07,0,.09.05l0,.05h1.56c.06,0,.06,0,.08.06s.06.11.1.1,0-.07,0-.14,0,0,0,0,0,.18-.08.05l0-.09H9.87l0-.05s0-.05-.09-.05-.08,0-.1-.06,0,0,0,0m-6.5.05a.24.24,0,0,0,0,.08s0,0,0,0,0-.11,0,0m3.57,0h0m4.83,0a.31.31,0,0,0,0,.08s0,.05,0,0a.31.31,0,0,0,0-.08s0-.05,0,0m-8.31.05s0,0,0,0a10.78,10.78,0,0,1,1.55,0s-.06,0-.41,0h0c.42,0,.47,0,.44-.06a14.34,14.34,0,0,0-1.58,0m6.65,0c0,.05,0,.05.41.05h0c-.36,0-.4,0-.4,0a12.81,12.81,0,0,1,1.56,0h0s0,0-.79-.05-.78,0-.79,0M3.4,5.42h0m-.31,0c-.06.16-.06.18,0,.18s.08,0,.08,0,0,0,0,0S3,5.6,3.08,5.5a.12.12,0,0,0,0-.06h0m.92,0H3.2l0,0s0,0,0,.05l0,0,0,0H4l.81,0H4m2.64.11a7,7,0,0,0,1.41,0s0,0,0,0a12,12,0,0,1-1.39,0s0,0,0,0m.22.1s0,0,.47,0,.47,0,.47,0,0,0-.47,0-.48,0-.47,0m.93,0-.46,0-.46,0,.46,0,.46,0m4.93.64,0,0s-.07,0-.1,0h0s0,0,0,0,0,0,0,0-.06,0-.06,0h0s0,0,0,0,0,0,0,0l0,0s0,0,0,0-.07,0-.28,0-.28,0-.32,0l0,0,0,0a.09.09,0,0,1,0,.07s0,0,0,0,0,0,0,0,0,0,0,0,0-.06,0-.06,0,0,0,0,0,0,0,0,0,0,0,0,0-.07-.39-.07H11l.34,0c.42,0,.42,0,.31.16l-.06.09v.37h0s0,0,0,0-.05-.33,0-.37l0,0a.13.13,0,0,1,.09-.08s0,0,0,0,0,0,0,0h0l0,0s0,0,0,0,0,0,0,0,0,0,0,0l.07,0c.06,0,.07,0,.07,0s0,.07,0,.07l0,0s-.07,0-.08,0,0,.07.05.08.07,0,0,0-.1,0,0,0,.09,0,.05,0l0,0h-.06a.11.11,0,0,0-.09,0s0,0,.11,0H12V6.69l-.06-.08a.26.26,0,0,1-.06-.11v0h.26c.5,0,.51,0,.38.17l-.07.09v.54c0,.29,0,.54,0,.54a.43.43,0,0,1,.12.2s0,0,0,0,0-.1,0-.13-.07-.1,0-.1l0,0v0s0-.07,0-.11,0,0,0,0,0,0,0,0,0-.1,0-.08,0,0,0,0,0-.08.05,0a0,0,0,0,0,0,0,0,0,0,0,1,0,0s0,0,0-.06a.27.27,0,0,1,0-.09,0,0,0,0,0,0,0,.27.27,0,0,1,0-.16,1.32,1.32,0,0,1,0,.45,1.17,1.17,0,0,0,0,.31,2.85,2.85,0,0,0,0-.6V6.73l0-.07-.07-.09s0-.1,0-.11.41,0,.84,0h.34v.19c0,.26,0,.25-.29.17l-.29-.08a5.2,5.2,0,0,0,0,.84c0,1,0,1-.18.73l-.18-.21L12.87,8h0s0,0,.17.22l.18.2c.11.14.12.11.12-.76,0-.5,0-.77,0-.79s.06,0,.07,0,.05,0,.05,0h0a0,0,0,0,0,0,0s0,0,0,0,0,0-.05,0,0,0,0,0,.05,0,.06,0,0,0,.06,0,.05,0,0,0,0,0,0,0,0,0,0,0,0,0,0,0,0,0,.07,0,.13,0,.13-.24,0-.22-.25-.22H13.5a0,0,0,0,0,0,0s0,0-.05,0,0,0,0,0-.13-.06-.32-.07l-.2,0a.11.11,0,0,0-.1,0l-.06,0v0s0,0,0,0l0,0m-10.09,0c-.13,0-.22.06-.16.08s0,0-.12,0H2.23a.33.33,0,0,0,0,.23,0,0,0,0,1,0,0s0,0,0,0h0s0,0,0,0,0,0,0,.07a.34.34,0,0,0,0,.09s0,0,0-.14,0-.07.08,0a2,2,0,0,1,0,.54v.51l-.05.08a.29.29,0,0,0,0,.09l.06-.08.05-.08V6.71L2.3,6.63c-.09-.12-.08-.16,0-.17s.91,0,1,0h.06v.18c0,.26,0,.26-.41.1-.12-.05-.12-.05-.12.14v.17h.12c.3,0,.27,0,.27.19s0,.21-.21.11l-.17-.08a.88.88,0,0,0,0,.25v.25h0L3,7.72l0,0H3l-.07,0s-.05,0-.05,0,0,0,0,0,0,0,0,0,0,0,0,0l0,0h0l0,0s0,0,0,0a.58.58,0,0,0,0-.1s0-.06,0,0a0,0,0,0,0,0,0l.05,0s0,0,0,0,0,0,0,0,0-.06,0-.1l.08,0c.08,0,.09,0,.12,0a.48.48,0,0,0,0-.35.11.11,0,0,1,0-.1s0-.06,0-.06,0,0,0,0l0,0s0,0,0,0l0,0c.06,0,.08-.06.08-.24s0-.22-.11-.22-.08,0,0,0,0,0-.08,0,0,0,0,0,0,0,0,0a3.53,3.53,0,0,0-.54,0m5.45,0h0m.05,0c-.13,0-.15,0-.15,0s0,0-.1,0l-.11,0-.16,0a.42.42,0,0,0-.17,0,.16.16,0,0,0,0,.16l0,0h0s0,0,0,.35V6.7l-.06-.09c-.11-.16-.1-.16.61-.17.48,0,.45,0,.45.2s0,.25-.17.19l-.34-.11s0,0,0,.16v.16h.18c.24,0,.24,0,.22.19s0,.22-.23.11L8,7.28a1.51,1.51,0,0,0,0,.53s0,0,0,0a.68.68,0,0,1,0-.24V7.34h0a0,0,0,0,1,0,0,.05.05,0,0,0,0,0l.11,0c.08,0,.12,0,.14,0l0,0a.39.39,0,0,0,0-.13c0-.14,0-.2.06-.15l.06,0a.19.19,0,0,1,.14.14s0,0,0,0,.07.06.07.14c0,.34,0,.13,0-.28a3.91,3.91,0,0,0,0-.5l-.08-.11c-.09-.13-.09-.13-.33-.14s-.14,0,0,0h.16l-.09,0-.12,0H8.13m1,.07H8.91c-.18,0-.21,0-.21,0s0,0,.14,0a3.87,3.87,0,0,1,.57,0s0,.06,0,.09l-.07.09,0,.06V7.76l0,.06.06.09a.09.09,0,0,1,0,.06s0,0,0,0,0,0,0-.06,0-.06,0-.06,0,0,0,0,0,0,0,0,0,0,0,0,0,0,0,0l0,0s0,0,0,0l0,0,0-.05c0-.05.06-.07.06,0s0,0,0,0a.12.12,0,0,0,0-.06,0,0,0,0,1,0,0s0,0,0-.09-.05-.7,0-.7,0,0,0,0a.92.92,0,0,1,.26-.26.83.83,0,0,1,.94.1c.09.09.07.12-.16.24s-.14.08-.25,0a1,1,0,0,0-.28-.14c-.17-.06-.19,0-.2.26,0,.12,0,.12,0,0s0-.1,0-.09.06,0,.06,0,0,0,0,0,0,0,0,0,0,0,0,0h0c-.13-.05-.16-.09-.06-.07l.08,0,.07,0,.08,0,.19.13s.07,0,0,.06l0,0h0s-.06,0,0,0a0,0,0,0,1,0,.07,0,0,0,0,0,0,0c0,.06,0,.09,0,.09s-.08,0-.05.06,0,.25,0,.25l0,0s0,0,.05,0,0,0,0,0a.12.12,0,0,0,0,.06s0,0,0,0l0,0s0,0,0,0-.23-.18-.27-.27,0,0,0,0,.31.39.41.39a1.64,1.64,0,0,0,0-.27c0-.32,0-.3.22-.3s.16,0,.2,0l0,0v.27c0,.35,0,.31-.19.38s-.06,0,.07,0l.14-.06s0,0,0,0,0,0,0,0,.06-.07.07-.06,0,0,0,.06-.06.06,0,.06a.2.2,0,0,0,.08-.07l.06-.07s0-.25,0-.54V6.72l-.07-.1A.4.4,0,0,1,11,6.49s0-.06,0,0a.14.14,0,0,0,0,.07s0,.07,0,.08a.07.07,0,0,0,0,0s0,0-.05,0,0-.08,0-.08,0,0,0,0,0,0,0,0,0,.05,0,0a0,0,0,0,0,0,0,.43.43,0,0,1-.19-.08h-.05l-.08,0a1,1,0,0,0-.54,0s-.14.09-.14.06,0,0,0,0l0,0s0,0,0,0,0,0-.1,0H9.59s0,0,0,0,0-.05,0,0H9.47s0,0,0,0,0,0-.09,0l-.1,0H9.18m-8.27,0a0,0,0,0,0,0,0s0,0,0,0a4.5,4.5,0,0,1,1,0c.19,0,.2,0,.1.17L2,6.72V8l-.12.14-.19.22c-.12.14-.12.19-.13-.77,0-.47,0-.85,0-.86A3.5,3.5,0,0,0,1,6.87l0,0h.05l.14,0,.26-.06s0-.08,0,.88,0,.91.29.57L2,8V6.73l0,0c.07-.07.15-.26.09-.24h0a8.79,8.79,0,0,0-1.18,0m3.37,0a.36.36,0,0,0-.08.16l0-.07,0-.08h.16l.1.21.12.27s0,.05,0,0a3.09,3.09,0,0,0-.25-.52.16.16,0,0,0-.16,0m1.12,0a.09.09,0,0,0,0,.06s0,0,0,0,0-.07.24-.07.22,0,.29.1L6,6.62a.3.3,0,0,0-.05-.1l-.06-.09H5.65a.65.65,0,0,0-.25,0m1.13,0s0,.09,0,.15,0,.08,0,.15,0,.06,0,.06l.06-.07,0-.08,0-.07c-.09-.13-.09-.14.28-.14a1.31,1.31,0,0,1,.34,0h0a2.45,2.45,0,0,0-.68,0m.6.17-.06.09v.36c0-.4,0-.37.09-.47s0-.07,0-.07l-.07.09M5.4,6.56l0,.08,0,.07v.54a3.82,3.82,0,0,1,0,.55.39.39,0,0,0-.1.14s0,0,0,0l.07-.09.05-.06V6.69l0-.07,0-.06m4.31.06,0,0s0,0,0,0,0,0,0,0M6,6.73l.07.1s0,0,0,0L6,6.69l0,0s0,0,0,.09M4.1,6.8c-.06.12,0,.13,0,0s0-.1,0-.1a.32.32,0,0,0-.05.09m-3.21,0A.1.1,0,0,0,1,6.9s0,0,0,0A.11.11,0,0,1,.9,6.83s0,0,0,0m5.6,0,0,0a1.22,1.22,0,0,1-.15.22L6.23,7c-.06-.1-.12-.19-.1-.14L6.19,7l0,.07a.29.29,0,0,0,.08.11A.31.31,0,0,0,6.38,7l.1-.16q.06-.1,0,0m4.37,0s0,0,0,0h0s0,0,0,0M4,7a.22.22,0,0,0,0,.08l0-.07A.22.22,0,0,0,4,7L4,7m1.75.28c0,.45,0,.45.06.53l.06.07a.41.41,0,0,0-.09-.13,2.89,2.89,0,0,1,0-.37c0-.2,0-.37,0-.37a1.87,1.87,0,0,0,0,.27m-1-.15a.35.35,0,0,0,.05.1.85.85,0,0,0-.09-.2.47.47,0,0,0,0,.11m1.81-.06a1.84,1.84,0,0,0-.18.3,1.42,1.42,0,0,0,.15-.23l0,0s0,0,0,0,0,0,0,0m-2.36,0s0,.06,0,0,.14.18.14.24H4.25c-.14,0-.14,0-.08-.12a.22.22,0,0,0,0-.09.8.8,0,0,0-.1.21h.3a2.81,2.81,0,0,0-.15-.3l0,0m1.54,0,.08.13.09.14,0,0,0,0c.05.14.19.28.24.25a.91.91,0,0,0,.18-.25l-.09.12c-.12.18-.12.19-.33-.14l-.2-.3h0m4.18.09a.32.32,0,0,0,0,.1l0,.05V7.28c0-.09,0-.15,0-.08m-6.09.1c-.06.13-.06.15,0,0a.38.38,0,0,0,0-.11s0,0-.05.09m1,0,0,0a.22.22,0,0,0,0-.1s0,0,0,.05m6.76,0a1.19,1.19,0,0,0,0,.45s0,0,0,0a1.19,1.19,0,0,1,0-.41,1.16,1.16,0,0,1,.34,0,.91.91,0,0,1-.05.47s0,0,0,0,0,0,0,0,0,.14,0,.14,0,0,0,0,0-.1.1-.17a.71.71,0,0,0,0-.25V7.32h-.19c-.16,0-.19,0-.2,0m1,.06s0,0,0,0,0-.05,0-.05,0,0,0,0m-7.69.06c0,.07.05.11.05.09a.53.53,0,0,0-.07-.14s0,0,0,.05m-2,.09H3s0,0,0,0-.08,0,0,0m.81.06a.19.19,0,0,0,0,.08s0,0,0-.06,0-.1,0,0M5,7.63l0,0a.22.22,0,0,0,0-.1s0,0,0,.05m-1.74,0s0,0,0,0,.08,0,.08.22a.59.59,0,0,0,0,.17,1,1,0,0,0,0-.38s-.07,0-.09,0m-.11,0H3.08s0,0,0,0,0,0,0,0,0,0,0,0a.46.46,0,0,0,.21-.05H3.13m.85,0s-.06.08,0,.09l0,0,0,0H4.5l0,.07,0,.07-.06.08c-.06.07-.09.17,0,.17s0,0,0,0,0-.06.06-.12l.06-.09,0-.07,0-.07H4m5.61,0a.92.92,0,0,0,.25.25l.08,0a.66.66,0,0,0,.24.07l-.06,0a.88.88,0,0,1-.49-.33s0,0,0,0m-2.52.07a.13.13,0,0,0,0,.1l0,0,0,0a.27.27,0,0,1,0-.1v0m1.75,0a.39.39,0,0,1-.06.13c-.06.08-.08.17,0,.17s0,0,0,0,0-.06.06-.12.06-.1.06-.14,0,0,0,0M5,7.71a.77.77,0,0,0,.1.14l0-.08C5,7.7,5,7.69,5,7.71m-1.4.08c-.1.14-.14.23-.09.23s0,0,0,0,0-.07.07-.14l.07-.11-.06.06m3.94,0,0,0c-.08.08-.12.19-.09.22s0,0,0,0,0-.06.06-.12a.27.27,0,0,0,.06-.11s0,0,0,0m-1,.11c-.05.07-.07.15,0,.15s0,0,0,0,0-.06,0-.11l0-.08-.06.07M4,7.88,4,7.94a.36.36,0,0,0-.09-.13s0,0,0,.07m4.13,0a.11.11,0,0,1,0,.09s0,0,0,0,0,0,0,0-.06-.14-.08-.14,0,0,0,0m3.59,0c.06.09,0,.11-.08.12h0c.12,0,.12,0,.13,0s-.05-.15-.08-.15,0,0,0,.06m-6.54,0a.14.14,0,0,1,0,.08s0,0,0,0,0-.06,0-.11l0,0,0,.06m2,0,0,0s0-.07,0-.07,0,0,0,0M2.23,8s0,0,0,0,0,0,0,0v0s0,0,0,0M5.85,8s0,0,0,0,0,0,0,0,0,0,0,0m4.7,0s0,0,0,0h.06s0,0-.07,0M6.87,8h0M5.49,8h0m4.8,0s.09,0,.1,0,0,0-.06,0-.06,0,0,0m1.05,0h0m.89,0h0M2.91,8.4a.21.21,0,0,0,0,.1c0,.13,0,.15.17.07s.1-.07,0,0-.15.06-.15-.07,0-.1.36-.1h.32V8.5c0,.12,0,.13-.11.07s-.11-.08-.11.25,0,.29,0,.33a.09.09,0,0,1,0,.06s0,0,0,0,0-.06,0-.1,0-.06,0-.32V8.55l.09,0c.11.05.13,0,.13-.08s0-.12-.36-.12a1.25,1.25,0,0,0-.34,0m1.65,0s0,.05,0,0,.07,0,.1,0h0s-.09-.06-.13,0M6,8.39s0,0,.08,0,.11,0,.08,0H6m1,0a.2.2,0,0,0,0,.2l0,0,.08,0,.09,0a2.05,2.05,0,0,1,0,.54s-.06.1,0,.12a.94.94,0,0,0,.36,0H7.35c-.2,0-.22,0-.15-.09s0-.06,0-.32,0-.3-.11-.24-.08,0-.1,0a.2.2,0,0,1,0-.18,2.9,2.9,0,0,1,.68,0s0,0,0,0a2.12,2.12,0,0,0-.7,0m1.52,0s0,.06,0,.1l0,.05h0s0,0,0-.07,0-.09.18-.09.2,0,.14.1a1.47,1.47,0,0,0,0,.65c.06.08,0,.09-.16.09s-.21,0-.16-.08l0-.05,0,.05c-.05.08,0,.1.17.1s.23,0,.18-.11,0-.68,0-.68,0,0,0-.07a.91.91,0,0,0-.38,0m1.51,0a.42.42,0,0,0-.22.14l0,.05.06-.06a.36.36,0,0,1,.29-.12c.08,0,.11,0,.08,0a.32.32,0,0,0-.17,0m1.34,0h.08l.15,0h0s-.22-.07-.27,0m-5.54,0a.46.46,0,0,0-.19.26s0,0,0-.06a.44.44,0,0,1,.19-.2l0,0s0,0-.08,0m4.45,0c.15.08.16.13.06.18l-.06,0s.14-.06.15-.09-.12-.16-.18-.16,0,0,0,0m1,0-.06.08,0,0s.06-.06.07-.06l0,0s0,0-.09,0m.84-.05c-.05.05,0,.12.11.13s.12,0,.1-.09-.17-.07-.21,0m.18,0s0,.12-.09.07a0,0,0,0,0,0,0s-.06-.05,0-.08a.38.38,0,0,1,.17,0m-6,0c.07.06.07.08,0,.14s-.1.06-.2,0l-.11-.05L6,8.61l.12.07s0,0,.17-.07.06-.1,0-.16,0,0,0,0m-1.57,0a1.77,1.77,0,0,0,.13.25,1.79,1.79,0,0,0-.13-.27h0m2.76.35c0,.28,0,.28,0,.34l0,0,0,0s0,0,0-.42c0-.14,0-.16,0-.16s0,0,0,0l0,0s0,0,0,.28M5.87,8.56a0,0,0,0,0,0,0s0,0,0,0,0,0,0,0m4.08,0A.37.37,0,0,0,10.1,9s0,0,0,0-.17-.18-.17-.32,0-.1,0-.12,0,0,0,0l0,0m-2.4,0,.05,0c.05,0,.1,0,.1,0h0s0,0-.08,0h0m2.47,0,0,0,.1.06c.06,0,.08.05.1,0s0,0,0,0l-.11-.05c-.09-.05-.12-.07-.1,0m1.34,0,.14.11c.16.1.17.11.2.17s0,0,0,0-.1-.14-.22-.21-.17-.13-.06-.08l0,0a.42.42,0,0,0-.14-.07s0,0,0,0m-1.64.08a.17.17,0,0,0,0,.06s0,0,0,0,0-.08,0,0m-4.1.13s0,.06,0,0a.33.33,0,0,0,0-.08s0,0,0,0m-1.09,0c0,.09,0,.11,0,0s0-.06.05,0,0,0,0,0,0,0-.05,0m.3-.06a1.25,1.25,0,0,0,.1.2,1.2,1.2,0,0,0-.1-.21h0m-.47.07s0,.07,0,.07,0,0,0,0l0-.07s0,0,0,0l0,.06m6.85,0a.89.89,0,0,0,.16.14.63.63,0,0,1,.15.14s0,0-.07,0S11.3,9,11.23,9s0,0,0,0l.07,0,0,0c.07.05.15.09.16.08s0-.12-.16-.2l-.14-.11s0,0,0,0m-5.33.07s.21.22.24.2L6.05,9a.43.43,0,0,1-.12-.1l0,0m3.82,0c0,.19.35.42.51.33h-.08a.4.4,0,0,1-.42-.31s0,0,0,0m-4.08,0c0,.08.17.26.27.29s.41,0,.41-.12-.1-.05-.12,0l0,0c.08,0,.07.05,0,.1A.38.38,0,0,1,5.66,9s0-.05,0,0M4.26,9l0,.07s0,0,0,0A.32.32,0,0,0,4.29,9s0,0,0,.05m.67,0a.69.69,0,0,0,.13.21s0,0,0-.06L5,9c0-.05,0-.07,0,0M4.63,9c.08,0,.09,0,.05.12s0,.1.18.1h0c-.21,0-.23,0-.17-.09S4.72,9,4.62,9h0m5.54,0h0s0,0,0,0h0s0,0,0,0m-5.76,0s0,0,0,.09,0,.09-.11.09-.12,0-.12,0,0,0,0,0,0,.08.15.08.17,0,.11-.11,0,0,0-.07,0,0,0,0m5.9,0c.07,0,.07,0,0,.07s0,0,0,0,.07-.05.07-.07-.06,0-.1,0l0,0m.82,0s0,0,0,.07.06,0,0,0l0,0,0,0s0,0,0,0l0,0m-8,.06c0,.08,0,.1.08.11h0c-.1,0-.11,0-.07-.1s0-.05,0-.05l0,0m8.16.07a.59.59,0,0,0,.3,0h-.11a.4.4,0,0,1-.17,0c-.08,0-.09,0,0,0m-6.14.87s0,0,0,0,.05,0,.08,0l0,.06H7s-1.29,0-1.54,0H5.25v.07h.23c-.15,0-.22,0-.22,0a5.23,5.23,0,0,1,.71,0h.89c.28,0,.26,0,.26.12a.24.24,0,0,1,0,.11s0,0,0-.11,0-.07,0-.07H5.74l.67,0h.66v.08c0,.18.08.16.08,0s0-.13,0-.14-.05,0,0,0,.07,0,.07.17,0,.16.08.21l.07,0,.07,0,.07,0v-.33h0v.11c0,.17.07.19.08,0v-.08H9.41v0a.07.07,0,0,1,0,0l0-.06s.08-.08.08,0a1.44,1.44,0,0,1-.09.24,7.59,7.59,0,0,1-.89,0c-1,0-.9,0-.9.1s0,.06-.07.1-.07.06-.08.1a.22.22,0,0,1,0,.06c-.14.1-.16.1-.26,0s-.08-.06-.08-.11,0-.06-.08-.1-.07,0-.08-.12v-.07H6.11l-.9,0a.62.62,0,0,1,0-.12.3.3,0,0,0,0-.1.67.67,0,0,0,.08.23s.08,0,.9,0H7v.06c0,.07,0,.09.1.13s.06,0,.06.08,0,.1.07.1l.05,0c.08.06.27,0,.27-.12s0-.06,0-.08.12-.09.12-.15v-.05H9.45l0,0a.72.72,0,0,0,.08-.23c0-.06-.08-.05-.1,0v0H7.49s0,0,0,.17v.16l-.05,0c-.12.07-.2,0-.2-.12s.12-.26-1-.26h-1l0-.05c0-.06-.1-.08-.1,0m4.27.17H7.59a.26.26,0,0,0,0,.09c0,.13,0,.12,0,0v-.11h.94c.63,0,.93,0,.92,0m-2.2.39s.06.09.09.09,0,0-.05,0,0,0,0,0,0,0,0,0m.26,0s-.06.09-.12.09,0,0,0,0,.19-.07.16-.11,0,0,0,0m-.2,0,.1.05,0,0,0,0,0,0s0,0-.09,0l0,0" transform="translate(6 1)"/><path id="path4" class="cls-5" d="M6.69,3.61a.17.17,0,0,0,0,.07s0,0,0,0a.12.12,0,0,1,.05-.07h0s0,0-.06.06m.58,0c.05.06.05.06-.21.06H6.79a3,3,0,0,0-.17.45s0,0,.09-.22a1.93,1.93,0,0,1,.08-.21,2.51,2.51,0,0,1,.56,0H7.9l0,.1a.34.34,0,0,0,0,.1.58.58,0,0,0-.06-.19s0,0-.28,0-.28,0-.23,0,0,0,0,0l0,0s0,0-.1,0,0,0,0,0m.43,0H8l0,.11,0,.11s0,0,0-.15l0-.09H7.69m-1,.17s0,0,0,0,0,0,0,0,0,0,0,0l0,0m.21,0A.64.64,0,0,0,6.78,4s0,0,0,0,0,0,0,0,0,0,0,0,0,0,0,0,0,.06,0,0v0a.13.13,0,0,0,0,.07.09.09,0,0,1,0,.06s0,0,0,0,0,0,0,0a.27.27,0,0,0,0,.14s0,0,0,0,0,0,0,0,0,0,0,0,0,0,0,0a1,1,0,0,0,.13-.38.09.09,0,0,1,0-.06s0,0,0,0,0,0,0-.07l0-.06h.44c.5,0,.46,0,.5.12s0,.07,0,.07a.08.08,0,0,0,0,0s0-.05,0,0,0-.11,0-.13a7.5,7.5,0,0,0-1,0m1,0H6.87l0,.05s0,0,0,0a.18.18,0,0,1,0-.06l0,0h.95m.24.06a.1.1,0,0,0,0,0s0,0,0,0a.1.1,0,0,0,0,0s0,0,0,0M6.56,4c-.06.17-.06.18,0,.15a1.42,1.42,0,0,0,.09-.26.5.5,0,0,0,0,.12M7.88,3.9,7.9,4a.23.23,0,0,1,0,.1.17.17,0,0,0,0,.07v0a.25.25,0,0,0,0-.14c0-.08,0-.11,0-.09m.22,0a2,2,0,0,0,.1.27,1.4,1.4,0,0,0-.09-.27s0,0,0,0M8,4A.1.1,0,0,0,8,4s0,0,0,0A.1.1,0,0,0,8,4S8,4,8,4M7.88,4a.1.1,0,0,0,0,0s0,0,0,0a.1.1,0,0,0,0,0s0,0,0,0M8,4.08a.1.1,0,0,0,0,0s0,0,0,0a.1.1,0,0,0,0,0s0,0,0,0m-1.46.14a.32.32,0,0,0,0,.1.24.24,0,0,0,0-.09c0-.12,0-.13,0,0M8,4.16s0,0,0,0,0,0,0,0l0,.1c0,.06,0,.08,0,.06s0,0,0,0,.07.31.08.24a.1.1,0,0,0,0-.07s0,0,0,0,0,0,0,0,0,0,0-.06S8,4.2,8,4.24s0,0,0,0a.13.13,0,0,0,0-.08s0,0,0,0m.15.11,0,.07s0,0,0-.07l0,0v0m1.18,0,0,0s0,0,0,0,0-.08,0-.08,0,0,0,0m.07,0a.05.05,0,0,0,0,0s0,0,0,0,0,0,0,0m-1.13,0a.1.1,0,0,0,0,0s0,0,0,0a.1.1,0,0,0,0,0s0,0,0,0m-2.95,0,0,.07v.05c0,.08,0,0,0-.07s0-.13,0,0m.06,0,0,.06s0,0,0,0,0-.09,0-.05m1.19,0s0,0,0,0l0,0s0,0,0,0l0,0m-.11,0a.12.12,0,0,0,0,.05l0,0a.12.12,0,0,0,0-.05l0,0m1.74,0a.1.1,0,0,0,0,0s0,0,0,0a.1.1,0,0,0,0,0s0,0,0,0m1.25,0a.54.54,0,0,0,.06.16.15.15,0,0,0,0-.06.31.31,0,0,1,0-.09s0,0,0,0,0,0,0,0m-1.13,0,0,.1s0,.07,0,.07a.69.69,0,0,0-.07-.19s0,0,0,0m-1.76,0,0,.14a.5.5,0,0,0,0,.12.55.55,0,0,0,.05-.13.68.68,0,0,0,0-.15h0m-.12.06s0,0,0,0,0,0,0,0,0,0,0,0l0,0m.26,0,0,.09a.25.25,0,0,0,0,.08s0,0,.06-.17,0,0,0,0v0m2.75,0,0,.1s0,0,0,0l0-.1s0,0,0,0m-2.79,0a.08.08,0,0,0,0,0s0,0,0,0a.08.08,0,0,0,0,0s0,0,0,0m-.24,0-.06.18a1.32,1.32,0,0,0-.06.18l0-.07.06-.17a.32.32,0,0,0,0-.11h0m.19.12a.35.35,0,0,0,0,.13c0,.06,0,0,0-.05s0,0,0,0,0,0,0,0,0,0,0,0,0,0,0,0l0-.06c0-.07,0,0,0,.06m-1.37,0a.24.24,0,0,0,0,.08s0,0,0-.07a.24.24,0,0,0,0-.08s0,0,0,.07m3,0s0,0,0,0,0,0,0,.07,0,0,0,0v0s0,.06,0,0,0,0,0,.05,0-.07,0-.16-.06-.13,0-.06m1.32,0a.1.1,0,0,0,0,0s0,0,0,0a.1.1,0,0,0,0,0s0,0,0,0m-1.08,0,0,.1a.21.21,0,0,0,0,.07.71.71,0,0,0-.06-.19s0,0,0,0m-3.19.09c0,.12,0,.13,0,0a.32.32,0,0,0,0-.1s0,0,0,.09m1.19,0a.39.39,0,0,0,0,.1.3.3,0,0,0,0-.09.39.39,0,0,0,0-.1.3.3,0,0,0,0,.09m3.11,0a.1.1,0,0,0,0,0s0,0,0,0a.1.1,0,0,0,0,0s0,0,0,0m.05,0,0,.08s0,0,0,0l0-.08s0,0,0,0m-4.42,0a.12.12,0,0,0,0,.05l0,0a.12.12,0,0,0,0-.05l0,0m2.17,0,0,0,0,0c0-.05.06-.05.08,0s0,0,0,0,0,0-.05,0,0,0,0,0,0,0,.07,0l0,0s0,0,0,0,0,0,0,0,0,0,.08.11.11.12.12.11,0,0,0,0a0,0,0,0,0,0,0s0,0,0,0,0,0,0,0,.09,0,.1,0h0s0,0,0,0,0,0,0,0,.06,0,0,0,0,0,0,0H8s0,0-.13,0-.15,0-.14,0,0,0,0,0h0v0h0s0,0-.1-.14l-.17-.2c-.1-.12-.11-.13-.16-.06m-.8,0a.57.57,0,0,0,0,.19s0,0,0-.08,0-.14,0-.1m1.84.07,0,.09s0,.05,0,.06,0,0,0,0,0,0,0-.12,0-.12,0-.05m1.19,0,0,.06s0,0,0,0l0-.06s0,0,0,0M7.13,5a.62.62,0,0,0-.1.15l0,0,0,0s0,0,0,0,0,0,.06-.06L7.24,5c0-.05,0-.07,0,0s-.06,0,0,0v0L7.13,5m-2-.13v0s0,0,0,0a.05.05,0,0,0,0,0s0,0,0,0m3.35,0a.48.48,0,0,0,.05.15.31.31,0,0,0,0-.09s0-.07,0-.07M6.31,5s0,0,0,0l0,0s0,0,0,0l0,0m.9,0-.12.14a.86.86,0,0,1,.14-.17s0,0,0,0m.31,0s0,0,0,0l0,0s0,0,0,0l0,0m.66,0c0,.05,0,.06,0,0s0-.05,0,0,0,0,0,0,0,0,0,0,0,0,0,0,0,0,0,0a.07.07,0,0,0,0,0,.06.06,0,0,1,0,.05s0,0,0,0A1.55,1.55,0,0,0,8.22,5l0,.07M9.55,5a.1.1,0,0,0,0,0s0,0,0,0a.1.1,0,0,0,0,0s0,0,0,0m0,0a.3.3,0,0,0,0,.08s0,0,0,0S9.6,5,9.6,5M5.08,5a.12.12,0,0,0,0,.05l0,0a.12.12,0,0,0,0-.05l0,0M7.29,5l-.13.17-.1.13H6.31l0,0a.11.11,0,0,0-.2,0s0,0,.05,0,.05,0,.08.05l0,.05h.15c.17,0,.17,0,.21.09s0,.07.06.07,0,0,0,0a.21.21,0,0,1-.06-.13s0,0,.24,0H6.25l0-.05s0-.05-.07-.05,0,0,0,0v0s.14,0,.15,0,0,.06.4.06.4,0,.43-.06A1.85,1.85,0,0,1,7.34,5l.11.11.09.11h0a.09.09,0,0,1-.09,0c0-.05-.07,0-.1,0s0,0,0,0l0,0,0,0a.11.11,0,0,0,.11,0c.08,0,.09,0,0-.14S7.34,5,7.29,5m-1.12.05,0,.07.09,0c.09,0,.1,0,.11,0s.12.06.12,0S6.3,5,6.3,5l.05,0s.06,0,.08.08,0,.1,0,.1,0,0,0,0,0-.07-.12-.07-.09,0-.08-.06a.11.11,0,0,0,0-.05s0,0,0,.05M6.5,5l.05.12.05.12H6.8c.19,0,.2,0,.23,0s0,0,0,0l0,0,0,0s0,0,0,0H6.63l0-.05s0,0,0,0,0,0,0,0a.09.09,0,0,0,0-.06s0,0,0,0,0,0,0,0a0,0,0,0,1,0,0,0,0,0,0,0,0,0h0m1.12.1s-.07-.06-.07-.08l0,0,0,0M5,5.17c0,.1,0,.1-.09.1H5l0-.1a.38.38,0,0,0,0-.1.3.3,0,0,0,0,.09M8.5,5.1s0,0-.07,0h0c.09,0,.1,0,.08-.06v0m1.17.06a.22.22,0,0,0,0,.11s0,0,0-.11l0,0v0M5,5.26c0,.06,0,.06-.38.06h0l.21,0s0,0,0,0l.08,0c.06,0,.14-.08.11-.12s0,0,0,0m4.64,0c0,.11,0,.12.6.1H9.76c-.07,0-.07,0-.09,0l0,0M7.21,5.3l-.08.1s0,0,0,0a.92.92,0,0,0,.15-.19l-.05.06m1.26,0,.08,0h0s0-.05-.1,0h0m-4.59,0h0m5.9,0h0m1,0h0m-3.48,0s0,.06,0,.1.06,0,.4,0,.36,0,.37,0,0,0,0,0,0,0,.18,0,.14,0,.15,0,0,0,0,0a3.28,3.28,0,0,1-1.14,0,0,0,0,0,1,.07,0,6.17,6.17,0,0,0,1,0H7.89a2.88,2.88,0,0,1-.52,0s0,0-.06,0m-4.11,0s0,.11,0,.1a0,0,0,0,0,0,0c0-.07,0-.08.3-.09h0c-.24,0-.28,0-.3,0m5.33,0s-.07,0-.07.06h0a.06.06,0,0,1,.05,0l0,0s0,0,0,0m2.4,0h0m.53.06s-.06,0-.41,0h.41l0,0,0,0,0-.05a.11.11,0,0,1,0-.06s0,0,0,0,0,0,0,0m-7.64,0h0m4.23.13s0,.07,0,0a.07.07,0,0,0,0,0s0,0,0,0m-5,0s0,0,0,0l0,0s0,0,0,0,0,0,0,0,0,0,0,0m8.48,0s.06,0,.07,0,0,0,0,0,0,0-.06,0,0,0,0,0m-4.76,0,0,0s0,0,0,0,.05.07.2.07H7c-.15,0-.18,0-.17-.07s0,0,0,0l0,0m.26,0H7m.78,0a0,0,0,0,1,0,0s0,0,0,0,0,0,0,0a.06.06,0,0,1,0,0s0,0,0,0,0,0,0,0M.91,6.47a1.53,1.53,0,0,0,0,.36.63.63,0,0,0,0-.17V6.48h0m1.15,0s0,0,0,.11l0,.06,0-.05c0-.05.06-.11,0-.11s0,0,0,0m.19,0s0,.06,0,.11l0,.05,0-.06c-.05-.07-.05-.1,0-.11h0m2,0s0,0,0,0l0,0s.13,0,.16,0h0c0-.06-.15-.08-.18,0m1.15,0s0,.13.05.13,0,0,0,0a.16.16,0,0,1,0-.08s0,0,0,0,0,0,0,0m.44,0,0,.06s0,0,0,0l0-.06s0,0,0,0m1.64,0h0m1.23,0a0,0,0,0,0,0,0s0,0,0,0,0,0,0,0h0s0,0-.05,0m.65,0s0,0,0,.1l0,0,0,0c0-.05,0-.1,0-.11s0,0,0,0m.79,0h0m.19,0h0m1.06,0h0m.22,0h.08s-.08,0-.08,0m.25,0s0,0,0,.08l0,0,0,0c0-.07,0-.07.18-.08h-.21m.62,0c.06,0,.06,0,0,.13l-.05.08.05-.06c.09-.1.09-.16,0-.16h0m1.06,0h0m.3,0s0,0,0,.18V6.47h0s0,0,0,0M3.34,6.65c0,.09,0,.13,0,.08a1.52,1.52,0,0,0,0-.17s0,0,0,.09m6.55-.08-.14.12-.07.07.08-.07.16-.12.07,0-.09,0m1.76,0-.06.08V7.1h0V6.69l.06-.08.06-.08-.07.08m-4.13,0,.06.08a.61.61,0,0,0-.1-.14l0,.07m1.27,0,.06.08a.61.61,0,0,0-.1-.14l0,.07m1.89,0s.13.1.11.07l-.08-.06h0M12,6.64l0,0s0-.06-.05-.08,0,0,0,0m.83,0,0,0,0,0,0,0,0,0m-6.18,0s0,0,0,0a.06.06,0,0,0,0-.07s0,0,0,0m2.69,0s0,.07,0,.48v0c0-.4,0-.46,0-.48l0,0,0,0m-3.82.56v.57l-.06.08s0,.07,0,.07l.06-.08,0-.07V7.23c0-.31,0-.57,0-.57s0,.25,0,.57m7-.15c0,.21,0,.3,0,.19s0-.28,0-.38,0,0,0,.19m-2.39-.36.05,0s0,0,0,0-.09,0-.07,0m1.12.54c0,.3,0,.55,0,.54s0-.26,0-.55v0m1.68-.45c0,.06,0,.08,0,0a.56.56,0,0,0,0-.11s0,0,0,.06M1.94,7.36V8l-.08.08-.14.16-.11.12,0,.07s0,0,.25-.27L2,8V7.36c0-.35,0-.64,0-.64s0,.29,0,.64m4.64-.62c-.05.09-.06.1,0,.06s.06-.08,0-.08l0,0m1.53,0,.06,0s0,0,0,0l-.06,0s0,0,0,0m.75.52c0,.29,0,.42,0,.27s0-.39,0-.54,0,0,0,.27m1.44-.44.13.08c.07.05.11.07.12.06s0,0,0,0l-.11-.06a.76.76,0,0,0-.2-.11l.07,0m-9.14,0s0,0,0,0h.05s0,0,0,0H1.16m9.53,0c-.14.08-.15.09,0,0l.12-.07s0,0-.1,0m-2.16,0-.05,0h0l.06,0s0,0,0,0m-2.06.1,0,.07s0,0,0,0,.07-.11.06-.11l0,0m3.1,0a.12.12,0,0,0,0,.05l0,0a.12.12,0,0,0,0-.05l0,0m-4.94,0,0,.07,0,0,0-.07,0,0M2.79,7s0,.05,0,0A.21.21,0,0,0,2.8,7s0,0,0,0M7.58,7c0,.05,0,.08,0,0a.48.48,0,0,0,0-.1s0,0,0,0M5.7,7s0,0,0,0,0,0,0,0,0,0,0,0-.05,0,0,0m.92,0s0,0,0,0,0,0,0,0,0,0,0,0M4.23,7s0,0,0,0,0,0,0,0,0,0,0,0,0-.06,0,0m5.3,0a.26.26,0,0,0,0,.06s0,0,0,0,0-.09,0,0m-3.75,0,0,.08s0,0,0,0l0-.08s0,0,0,0M8,7.07l.2,0h.19a1.93,1.93,0,0,0-.4,0m-6.49.68c0,.38,0,.69,0,.69s0-1.29,0-1.35,0,.28,0,.66m1.34-.67a1.41,1.41,0,0,0,.32,0H2.86m3.41.07s0,.05.05,0,0,0,0,0l0,0s0,0,0,0m7,.63c0,.39,0,.66,0,.66l-.12-.13c-.13-.16-.18-.22-.2-.21s0,0,0,0l.16.18c.21.25.19.3.18-.51v0M4.34,7.23l0,.1s0,0,0,0a.66.66,0,0,0-.09-.19s0,0,0,.06m2.15,0c-.05.09-.06.1,0,.06s.06-.08,0-.08l0,0m-3.7,0a2.64,2.64,0,0,0,0,.55s0,0,0,0a1.11,1.11,0,0,1,0-.28V7.25h.07s-.07,0-.08,0M8,7.24l.13.06L8,7.23H8M6,7.4l.13.19c0,.06,0,0,0-.07L6,7.36l-.07-.1L6,7.4m4.49-.13s0,.14,0,.29v0c0-.29,0-.31,0-.27m-7.56,0,.24.12L3,7.34c-.12-.07-.17-.08-.12-.05m1,0c0,.07,0,.09,0,0a.16.16,0,0,0,0-.06l0,0m7.73,0a1.62,1.62,0,0,0,0,.25v.24l.05.06.05.06,0-.06,0-.06V7.54c0-.17,0-.24,0-.24s0,0,0,0h0m-7.51,0s0,.07,0,.07,0,0,0,0a.06.06,0,0,1,0,0s0,0,0,0l0,0m4.07,0,.09.05.06,0a.48.48,0,0,0-.15-.07m.24,0a.1.1,0,0,1,0,.06s0,0,0,0,0-.06,0-.09,0,0,0,0m1.12,0a.21.21,0,0,0,0,.07s0,0,0,0,0-.09,0,0m-4.7,0,0,.05,0,0,0-.05,0,0m5.13,0a.1.1,0,0,0,0,.05s0,0,0,0l0-.05s0,0,0,0m-5.79.07h0m1.53.26c0,.06,0,.09,0,.06a.65.65,0,0,0,0-.11s0,0,0,.06m-1.65,0h0m.19,0h0m2,0H6.15s.06,0,.08,0,0,0,0,0l0,0m-2.31.07s0,.06,0,.08,0,0,0,0a.12.12,0,0,1,0-.07s0-.05,0-.05l0,.05m3.62.13-.05.09a.83.83,0,0,0,.12-.18l-.07.09m4.9-.07a.11.11,0,0,0,0,.05s0,0,0,0,0,0,0,0m-5.38,0,.05.08A.43.43,0,0,1,7.18,8s0,0,0,0a.31.31,0,0,0-.06-.11c-.07-.1-.07-.1-.07-.08m-3.42,0c-.07.09-.1.14-.09.13a.69.69,0,0,0,.11-.15l0,0m.89.06c0,.05-.06.09-.06.11s0,0,0,0a.25.25,0,0,1,.05-.09c.06-.07.08-.1.07-.1l-.07.08m2,0A.23.23,0,0,0,6.52,8s0,0,0,0a.33.33,0,0,1,.06-.1l0-.08-.06.08m1.48,0,.06.06,0-.06L8,7.79l0,.06m.74,0c-.06.08-.09.13-.06.1a1.16,1.16,0,0,0,.12-.17l-.06.07m1,0a.47.47,0,0,0,.19.11l0,0-.11-.06s0,0,0,0m2.19,0s0,0,0,0,.06-.08.05-.08l0,0m-9.67,0C2.24,8,2.24,8,2.28,8s0,0,0,0,0,0,0-.09.07-.09.06-.09l-.06.08m8.8,0c0,.06-.06.09-.05.09l.05-.07c.06-.08.05-.09,0,0m-5.3,0a.13.13,0,0,1,0,.08s0,0,0,0,0,0,0-.1l0-.05,0,.06m6.72,0,0,0s0,0,0,0l0,0,0,0m-.62,0s0,0,0,.06,0,0,0,0a.07.07,0,0,1,0-.06l0,0,0,0m-.19,0V8h0V8a.07.07,0,0,0,0,0s0,0,0,0M8.12,8s0,0,0,0,0,0,0,0,0,0,0,0m2,0,.09,0h0s-.16,0-.13,0M3.75,8h0m.91,0h0M4.9,8h0m.54,0h0m.25,0h0m1,0h0m3.64,0h0m1.74,0h0m-8.83.41c.36,0,.35,0,.34.1s0,.06-.07,0,0,0,0,0,.11,0,.1-.1V8.42H3.24m1.4,0,0,0s0,.09,0,.09,0-.12-.06-.12,0,0,0,0M6,8.41l.06,0s0,0,0,0-.1,0-.09,0m1,0a.29.29,0,0,0,0,.09c0,.07,0,.06,0,0V8.42h.65V8.5c0,.06,0,.08,0,.08s0,0,0,0,0,0,0-.09V8.42H7.34c-.27,0-.33,0-.34,0m1.51,0s0,0,0,.06a1.49,1.49,0,0,1,0,.67c-.05.07,0,.08.15.07h.15c-.06,0-.11-.07-.11-.11s0,0,0,0,0,0,0,0,0,0,0,0,0,0-.08,0-.08.05,0,0a1.73,1.73,0,0,0,0-.68s0,0,0-.05,0,0,0,0h0m1.47,0s0,0,0,0,.08,0,0,0l-.06,0m1.41,0h0m-.11,0-.07.06,0,0,.05,0,.08-.06,0,0-.05,0m.29,0h.06s-.06,0-.09,0l0,0m-1.68,0,0,0,0,0c.06,0,.06,0,0,0l-.05,0m-1.06,0a1.67,1.67,0,0,0,0,.67s0,0,0,0a2,2,0,0,1,0-.66l0,0,0,0m3.33,0s.08,0,.08,0,0,0,0,0,0,0,0,0m-9.1,0c-.08.06-.09.07,0,0s.08,0,.09,0,0,0,0,0,0-.06-.1,0m.29,0a3,3,0,0,0,0,.34c0,.31,0,.32,0,.26a.92.92,0,0,1,0-.23c0-.14,0-.15,0-.09a.42.42,0,0,0,0,.11c0,.06,0,.22,0,.22s0,.07,0,.07.15,0,.15,0,0,0,0,0,0,0,0-.06a1.5,1.5,0,0,1,0-.66s0,0,0,0,0,0,0,0m2.9,0,0,.06s0,0,0,0a.11.11,0,0,0,0-.06l0,0,0,0m5.41,0s0,0-.06.09-.11.07,0,0,.12-.07.07-.1,0,0,0,0m-4.51,0c-.09,0-.09.06,0,0s.08,0,.09,0,0,0,0,0,0,0-.09,0m.29.29a2,2,0,0,1,0,.32s0-.12,0-.22,0-.08,0-.08,0,0,0,.08,0,0,0,0,0,0,0,.1,0,.11,0,.12h.09c.09,0,.11,0,.13,0l0,0,0-.05a2,2,0,0,1,0-.66s0,0,0,0,0,0,0,.31m-1.7-.27a.42.42,0,0,0,.15.64c.06,0,.25,0,.2,0s0,0,0,0,.2-.07.14-.09,0,0,0,0-.08,0-.18,0-.22-.15-.22-.18l0,0a.08.08,0,0,1,0-.06s0,0,0,0,0,0,0,0a.08.08,0,0,1,0-.05.17.17,0,0,0,0-.15s0,0,0,0,0,0,0,.08a.2.2,0,0,0,0,.2s0,.06,0,0,0-.33.08-.41,0,0,0,0l0,0m4.08,0,0,.08c0,.06,0,0,0,0s.05-.1,0,0m-4,0a.56.56,0,0,0,0,.13v0c0-.13,0-.15.07-.13s0,0,0,0-.07,0-.08,0m4.07,0a.51.51,0,0,0,0,.23s0,0,0-.1,0-.17.1-.14.1,0,0,0-.11,0-.13,0m1.39,0a.14.14,0,0,0,0,.08s0,0,0,0-.06,0,0,.05h0s.09,0,.1,0,.1.08.11.06,0,0-.08-.07-.22-.2-.13-.17h0s0,0,0,0m-6.6,0,.06.12c.05.1.06.17,0,.1s0,0,0,0l0,0s0,0,0,0a0,0,0,0,0,.05,0h0s0,0,0,0,0,0,0,0,0,0,0,.05,0,0,0,0h.08s0,0-.17,0h0c.14,0,.19,0,.14.11s0,.06,0,0,0-.05,0-.07,0,0,0,0,0,0,0,0a.13.13,0,0,1-.06.15h.15c.2,0,.2,0,.13-.08A.87.87,0,0,1,4.93,9c0-.11-.09-.18-.09-.15a0,0,0,0,1-.06,0s0,0,0,0,.06,0,0-.17-.07-.15-.08-.12M6,8.58l.1.06s0,0,0,0A.35.35,0,0,0,6,8.55s0,0,0,0m.21,0,0,0h0l0,0,.06,0c.08,0,.08-.05,0,0m3.89,0,.05,0s.13,0,.13,0l0,0s0,0-.09,0l-.06,0s0,0,0,0m1.12,0s0,.05,0,0a0,0,0,0,0,0,0s0,0,0,0m-4,.09s0,0,0,0a.12.12,0,0,0,0-.05s0,0,0,0m-2.68,0c-.08.08-.12.26,0,.21s0,0,0,0,0,0,0-.1.05-.1.1,0,0,.09,0,.1,0,0,0,0,0,0,0-.07a.4.4,0,0,1,0-.13V8.67l0,0m5.17,0a.71.71,0,0,0,0,.13c0,.06,0,.06,0,0s0-.16,0-.08m1.46,0s.08.13.19.2.17.14.17.19,0,.06-.12,0L11.31,9s0,0,0,0h0c-.05,0-.16.07-.12.09s0,0,0,0,0,0,.1,0a.44.44,0,0,0,.31,0s0,0,0,0,0,0,0,0,0-.1-.17-.18a.51.51,0,0,1-.18-.17l0,0m.21,0,0,0s0,0,0,0,0,0,0,0,0,0,0,0,0,0,0,0l0,0s.09,0,.09,0,0,0,0,0,0,0,0,0,0,0,0-.06-.09-.06-.09,0m-8.24.07s0,.06,0,0a.27.27,0,0,0,0-.08s0,0,0,0m8.42,0,.05.06a.15.15,0,0,1,.05.07s0,0,0,0,0,0,0,0-.12-.13-.12-.11m-5.74,0a.31.31,0,0,0,.1.17L6,9l0-.05a.55.55,0,0,1-.08-.12l0-.05M7.23,9c0,.15,0,.18,0,.2a.08.08,0,0,0,0,.05s0,0,0,0l0,0s0,0,0-.19V9m4.34-.12a.14.14,0,0,1,0,.06c0,.06,0,.06,0,0a.06.06,0,0,0,0-.07s0,0,0,0M4.88,9s0,0,0,0l0,0s0,0,0,0a0,0,0,0,0,0,0s0,0,0,0a.11.11,0,0,1,0,.06M9.82,8.9c0,.08,0,.14-.05.09h0s.21.24.23.21S10,9,10,9s0,0,0,0,0,0,0,0a0,0,0,0,1,0,0c0-.06-.1-.11-.09-.06m1.7,0V9l0,.06s0,.06.05.06,0-.09,0-.12,0,0,0,0,0,0-.07,0l0,0M10,9a.31.31,0,0,0,.11.08l-.05,0L10,9m-6.85.09a.2.2,0,0,1,0,.1.13.13,0,0,0,0,.06s0,0,0,0l0-.06a.14.14,0,0,0,0-.1v0m1.22,0c0,.05,0,.07,0,.1s0,.05-.06.06h0c.11,0,.12,0,.06-.08s0,0,0-.09,0,0,0,0l0,0m7.31,0a.29.29,0,0,1-.07.09c-.06,0-.06,0,0,0s.12-.12.11-.14,0,0,0,0m-7.45.05,0,.07a.42.42,0,0,0,.08-.13l0,.06m1.82-.06.07,0h.05l-.05,0c-.06,0-.09,0-.07,0m4.27,0s0,0,0,0-.07.05,0,0,.1-.08.06-.08,0,0,0,0M10,9.21h.11c.06,0,.06,0,0,0s-.11,0-.06,0m1.36,0h0m-1.92.9,0,.08a.18.18,0,0,0,0,.06s-.06,0-.94,0H7.61v.08c0,.08,0,.09-.06.11l-.08.05s0,0,0,0l.05,0c.05,0,.09-.06.09-.14V10.3h.14c.18,0,.19,0,0,0H7.66v.07a.15.15,0,0,1,0,.09c-.06,0-.08.06,0,0a.13.13,0,0,0,.08-.13v-.05H9.44l0-.06,0-.11s0-.06,0-.07,0,0,0,0m-4.35,0a.88.88,0,0,0,.07.21l.28,0h.16c-.12,0-.09,0,.05,0H5.53c-.28,0-.31,0-.31-.07a0,0,0,0,0,0,0,0,0,0,0,1,0,0,.07.07,0,0,0,0,0s0,0,0,0m.71.09s0,0,.06,0H6a.35.35,0,0,0-.16,0m.15.1c.07,0,.09,0,0,0H7v.07c0,.06,0,.08.05.1l.09.07.1.06.06,0,0,0-.06,0s-.12-.09-.07-.09h0c0,.06.19.1.25.05s0,0,0,0a.18.18,0,0,1-.2-.06l-.06,0c-.05,0-.07,0-.07-.12V10.3H6m1.49.28,0,0h0s0,0,.08,0l0,0,0,0m-.14.08s0,0,0,0l.05,0s0,0,0,0" transform="translate(6 1)"/></svg>